<?xml version="1.0" encoding="UTF-8" standalone="no"?>
<svg width="89px" height="110px" viewBox="0 0 89 110" version="1.1" xmlns="http://www.w3.org/2000/svg" xmlns:xlink="http://www.w3.org/1999/xlink" xmlns:sketch="http://www.bohemiancoding.com/sketch/ns">
    <!-- Generator: Sketch 3.2.2 (9983) - http://www.bohemiancoding.com/sketch -->
    <title>&amp;</title>
    <desc>Created with Sketch.</desc>
    <defs></defs>
    <g id="Page-1" stroke="none" stroke-width="1" fill="none" fill-rule="evenodd" sketch:type="MSPage">
        <path d="M80.552,44.832 C80.8400014,44.4479981 81.3439964,43.8960036 82.064,43.176 C82.7840036,42.4559964 83.5519959,41.8560024 84.368,41.376 C85.1840041,40.8959976 85.9759962,40.656 86.744,40.656 C87.5120038,40.656 88.0879981,41.0879957 88.472,41.952 C88.9520024,43.1040058 88.9760022,44.7599892 88.544,46.92 C88.1119978,49.0800108 87.1280077,51.2159894 85.592,53.328 C82.0399822,58.2240245 78.1040216,63.1919748 73.784,68.232 C69.4639784,73.2720252 64.904024,78.2399755 60.104,83.136 C62.8880139,84.0000043 65.6239866,84.7919964 68.312,85.512 C71.0000134,86.2320036 73.639987,86.9279966 76.232,87.6 C77.9600086,88.0800024 78.8719995,89.2559906 78.968,91.128 C79.0640005,93.0000094 78.6320048,94.9439899 77.672,96.96 C76.7119952,98.9760101 75.4880074,100.727993 74,102.216 C72.5119926,103.704007 71.0480072,104.256002 69.608,103.872 C65.5759798,102.815995 61.4720209,101.712006 57.296,100.56 C53.1199791,99.4079942 48.9200211,98.0640077 44.696,96.528 C39.3199731,100.46402 33.6560298,103.631988 27.704,106.032 C21.7519702,108.432012 15.4640331,109.727999 8.84,109.92 C8.07199616,109.92 7.49600192,109.656003 7.112,109.128 C6.72799808,108.599997 6.44000096,108.048003 6.248,107.472 C5.67199712,105.071988 5.55199832,102.624012 5.888,100.128 C6.22400168,97.6319875 6.82399568,95.184012 7.688,92.784 C8.55200432,90.383988 9.65599328,88.0560113 11,85.8 C12.3440067,83.5439887 13.7359928,81.4560096 15.176,79.536 C11.0479794,75.6959808 7.71201272,71.3040247 5.168,66.36 C2.62398728,61.4159753 1.1120024,55.7280322 0.632,49.296 C0.24799808,42.9599683 1.23198824,36.5760322 3.584,30.144 C5.93601176,23.7119678 9.29597816,18.0480245 13.664,13.152 C18.0320218,8.25597552 23.2399698,4.58401224 29.288,2.136 C35.3360302,-0.31201224 41.863965,-0.72000816 48.872,0.912 C50.8880101,1.3920024 52.999989,1.94399688 55.208,2.568 C57.416011,3.19200312 59.5759894,3.95999544 61.688,4.872 C63.8000106,5.78400456 65.7679909,6.86399376 67.592,8.112 C69.4160091,9.36000624 70.9999933,10.8479914 72.344,12.576 C74.4560106,15.2640134 75.4640005,18.311983 75.368,21.72 C75.2719995,25.128017 74.5520067,28.3199851 73.208,31.296 C71.4799914,35.2320197 69.3440127,38.8799832 66.8,42.24 C64.2559873,45.6000168 61.4720151,48.7919849 58.448,51.816 C55.4239849,54.8400151 52.2800163,57.7679858 49.016,60.6 C45.7519837,63.4320142 42.5840154,66.1919866 39.512,68.88 C38.7439962,69.4560029 38.0480031,70.0559969 37.424,70.68 C36.7999969,71.3040031 36.1040038,71.9039971 35.336,72.48 C37.544011,73.8240067 39.7999885,75.0719942 42.104,76.224 C44.4080115,77.3760058 46.759988,78.4319952 49.16,79.392 C52.2320154,76.8959875 55.1839858,74.2080144 58.016,71.328 C60.8480142,68.4479856 63.559987,65.4960151 66.152,62.472 C68.744013,59.4479849 71.239988,56.4480149 73.64,53.472 C76.040012,50.4959851 78.343989,47.6160139 80.552,44.832 L80.552,44.832 Z M15.176,50.016 C16.5200067,53.3760168 18.1999899,56.3999866 20.216,59.088 C22.2320101,61.7760134 24.4879875,64.223989 26.984,66.432 C31.4960226,62.1119784 36.1039765,57.9840197 40.808,54.048 C45.5120235,50.1119803 50.0719779,45.9360221 54.488,41.52 C56.1200082,39.9839923 57.4159952,38.7360048 58.376,37.776 C59.3360048,36.8159952 60.3919942,35.5200082 61.544,33.888 C62.5040048,32.5439933 63.0559993,31.3200055 63.2,30.216 C63.3440007,29.1119945 62.9360048,28.0320053 61.976,26.976 C61.0159952,25.7279938 59.9120062,24.6960041 58.664,23.88 C57.4159938,23.0639959 56.1200067,22.3200034 54.776,21.648 C52.0879866,20.3999938 49.2560149,19.2960048 46.28,18.336 C43.3039851,17.3759952 40.3040151,16.7760012 37.28,16.536 C34.2559849,16.2959988 31.3040144,16.5119966 28.424,17.184 C25.5439856,17.8560034 22.808013,19.1039909 20.216,20.928 C17.815988,22.6560086 16.016006,24.6479887 14.816,26.904 C13.615994,29.1600113 12.8720014,31.583987 12.584,34.176 C12.2959986,36.768013 12.3919976,39.4319863 12.872,42.168 C13.3520024,44.9040137 14.1199947,47.5199875 15.176,50.016 L15.176,50.016 Z M17.624,93.648 C22.424024,93.1679976 26.8879794,92.1120082 31.016,90.48 C29.5759928,89.7119962 28.1360072,88.8960043 26.696,88.032 C25.2559928,87.1679957 23.8640067,86.2560048 22.52,85.296 C22.4239995,85.488001 22.280001,85.679999 22.088,85.872 C21.3199962,86.8320048 20.432005,87.9839933 19.424,89.328 C18.415995,90.6720067 17.816001,92.0159933 17.624,93.36 L17.624,93.648 Z" id="&amp;" fill="#4A4A4A" sketch:type="MSShapeGroup"></path>
    </g>
</svg>