<?xml version="1.0" encoding="UTF-8" standalone="no"?>
<svg width="99px" height="102px" viewBox="0 0 99 102" version="1.1" xmlns="http://www.w3.org/2000/svg" xmlns:xlink="http://www.w3.org/1999/xlink" xmlns:sketch="http://www.bohemiancoding.com/sketch/ns">
    <!-- Generator: Sketch 3.2.2 (9983) - http://www.bohemiancoding.com/sketch -->
    <title>C</title>
    <desc>Created with Sketch.</desc>
    <defs></defs>
    <g id="Page-1" stroke="none" stroke-width="1" fill="none" fill-rule="evenodd" sketch:type="MSPage">
        <path d="M77.072,0.192 C78.4160067,0.48000144 79.088,1.43999184 79.088,3.072 C79.088,4.70400816 78.6800041,6.45599064 77.864,8.328 C77.0479959,10.2000094 75.944007,11.8799926 74.552,13.368 C73.159993,14.8560074 71.7920067,15.6 70.448,15.6 C65.3599746,15.6 60.5600226,16.1279947 56.048,17.184 C51.5359774,18.2400053 47.2880199,19.8959887 43.304,22.152 C39.3199801,24.4080113 35.528018,27.2879825 31.928,30.792 C28.327982,34.2960175 24.8960163,38.543975 21.632,43.536 C18.8479861,48.2400235 16.6640079,52.7279786 15.08,57 C13.4959921,61.2720214 12.8959981,65.6639774 13.28,70.176 C13.8560029,74.0160192 15.1759897,77.0639887 17.24,79.32 C19.3040103,81.5760113 21.8959844,83.207995 25.016,84.216 C28.1360156,85.224005 31.6639803,85.7040002 35.6,85.656 C39.5360197,85.6079998 43.6399786,85.1760041 47.912,84.36 C52.1840214,83.5439959 56.4559786,82.4880065 60.728,81.192 C65.0000214,79.8959935 69.031981,78.5040074 72.824,77.016 C76.616019,75.5279926 80.0719844,74.0640072 83.192,72.624 C86.3120156,71.1839928 88.8319904,69.8880058 90.752,68.736 C93.2480125,67.2959928 95.1439935,66.6479993 96.44,66.792 C97.7360065,66.9360007 98.384,68.111989 98.384,70.32 C98.384,71.9520082 97.5920079,73.7039906 96.008,75.576 C94.4239921,77.4480094 92.0960154,79.2479914 89.024,80.976 C85.7599837,82.8960096 81.824023,84.9119894 77.216,87.024 C72.607977,89.1360106 67.808025,91.1519904 62.816,93.072 C57.823975,94.9920096 52.8560247,96.6959926 47.912,98.184 C42.9679753,99.6720074 38.5280197,100.703997 34.592,101.28 C32.6719904,101.568001 30.6560106,101.76 28.544,101.856 C26.4319894,101.952 24.3200106,101.904001 22.208,101.712 C20.0959894,101.519999 18.0560098,101.136003 16.088,100.56 C14.1199902,99.9839971 12.3200082,99.1680053 10.688,98.112 C7.42398368,95.3279861 5.02400768,92.1840175 3.488,88.68 C1.95199232,85.1759825 1.08800096,81.4800194 0.896,77.592 C0.70399904,73.7039806 1.06399544,69.7440202 1.976,65.712 C2.88800456,61.6799798 4.11199232,57.768019 5.648,53.976 C7.18400768,50.183981 8.9119904,46.6080168 10.832,43.248 C12.7520096,39.8879832 14.6239909,36.912013 16.448,34.32 C25.1840437,22.8959429 34.5199503,14.2560293 44.456,8.4 C54.3920497,2.54397072 65.263941,-0.19200192 77.072,0.192 L77.072,0.192 Z" id="C" fill="#4A4A4A" sketch:type="MSShapeGroup"></path>
    </g>
</svg>