<?xml version="1.0" encoding="UTF-8" standalone="no"?>
<svg width="1720px" height="212px" viewBox="0 0 1720 212" version="1.1" xmlns="http://www.w3.org/2000/svg" xmlns:xlink="http://www.w3.org/1999/xlink" xmlns:sketch="http://www.bohemiancoding.com/sketch/ns">
    <!-- Generator: Sketch 3.2.2 (9983) - http://www.bohemiancoding.com/sketch -->
    <title>Christoffer Johansen</title>
    <desc>Created with Sketch.</desc>
    <defs></defs>
    <g id="Page-1" stroke="none" stroke-width="1" fill="none" fill-rule="evenodd" sketch:type="MSPage">
        <path d="M77.072,19.192 C78.4160067,19.4800014 79.088,20.4399918 79.088,22.072 C79.088,23.7040082 78.6800041,25.4559906 77.864,27.328 C77.0479959,29.2000094 75.944007,30.8799926 74.552,32.368 C73.159993,33.8560074 71.7920067,34.6 70.448,34.6 C65.3599746,34.6 60.5600226,35.1279947 56.048,36.184 C51.5359774,37.2400053 47.2880199,38.8959887 43.304,41.152 C39.3199801,43.4080113 35.528018,46.2879825 31.928,49.792 C28.327982,53.2960175 24.8960163,57.543975 21.632,62.536 C18.8479861,67.2400235 16.6640079,71.7279786 15.08,76 C13.4959921,80.2720214 12.8959981,84.6639774 13.28,89.176 C13.8560029,93.0160192 15.1759897,96.0639887 17.24,98.32 C19.3040103,100.576011 21.8959844,102.207995 25.016,103.216 C28.1360156,104.224005 31.6639803,104.704 35.6,104.656 C39.5360197,104.608 43.6399786,104.176004 47.912,103.36 C52.1840214,102.543996 56.4559786,101.488006 60.728,100.192 C65.0000214,98.8959935 69.031981,97.5040074 72.824,96.016 C76.616019,94.5279926 80.0719844,93.0640072 83.192,91.624 C86.3120156,90.1839928 88.8319904,88.8880058 90.752,87.736 C93.2480125,86.2959928 95.1439935,85.6479993 96.44,85.792 C97.7360065,85.9360007 98.384,87.111989 98.384,89.32 C98.384,90.9520082 97.5920079,92.7039906 96.008,94.576 C94.4239921,96.4480094 92.0960154,98.2479914 89.024,99.976 C85.7599837,101.89601 81.824023,103.911989 77.216,106.024 C72.607977,108.136011 67.808025,110.15199 62.816,112.072 C57.823975,113.99201 52.8560247,115.695993 47.912,117.184 C42.9679753,118.672007 38.5280197,119.703997 34.592,120.28 C32.6719904,120.568001 30.6560106,120.76 28.544,120.856 C26.4319894,120.952 24.3200106,120.904001 22.208,120.712 C20.0959894,120.519999 18.0560098,120.136003 16.088,119.56 C14.1199902,118.983997 12.3200082,118.168005 10.688,117.112 C7.42398368,114.327986 5.02400768,111.184018 3.488,107.68 C1.95199232,104.175982 1.08800096,100.480019 0.896,96.592 C0.70399904,92.7039806 1.06399544,88.7440202 1.976,84.712 C2.88800456,80.6799798 4.11199232,76.768019 5.648,72.976 C7.18400768,69.183981 8.9119904,65.6080168 10.832,62.248 C12.7520096,58.8879832 14.6239909,55.912013 16.448,53.32 C25.1840437,41.8959429 34.5199503,33.2560293 44.456,27.4 C54.3920497,21.5439707 65.263941,18.8079981 77.072,19.192 L77.072,19.192 Z M117.248,77.8 C116.287995,80.008011 115.400004,81.9759914 114.584,83.704 C113.767996,85.4320086 112.928004,86.8239947 112.064,87.88 C113.888009,91.3360173 115.855989,94.4079866 117.968,97.096 C120.176011,92.6799779 122.671986,88.2640221 125.456,83.848 C128.240014,79.4319779 131.335983,75.5680166 134.744,72.256 C138.152017,68.9439834 141.84798,66.4480084 145.832,64.768 C149.81602,63.0879916 154.111977,62.8239942 158.72,63.976 C163.424024,65.1280058 167.071987,67.599981 169.664,71.392 C172.256013,75.184019 174.103994,79.5039758 175.208,84.352 C176.312006,89.2000242 176.864,94.1679746 176.864,99.256 C176.864,104.344025 176.672002,108.711982 176.288,112.36 C176.288,115.336015 175.616007,117.903989 174.272,120.064 C172.927993,122.224011 171.152011,124.071992 168.944,125.608 C166.735989,127.048007 164.960007,127.456003 163.616,126.832 C162.271993,126.207997 161.6,124.792011 161.6,122.584 C161.984002,119.991987 162.224,116.896018 162.32,113.296 C162.416,109.695982 162.200003,106.072018 161.672,102.424 C161.143997,98.7759818 160.184007,95.3440161 158.792,92.128 C157.399993,88.9119839 155.408013,86.3920091 152.816,84.568 C149.167982,82.359989 145.832015,81.855994 142.808,83.056 C139.783985,84.256006 137.048012,86.3679849 134.6,89.392 C132.151988,92.4160151 130.016009,95.9439798 128.192,99.976 C126.367991,104.00802 124.832006,107.655984 123.584,110.92 C123.007997,112.456008 122.360004,113.991992 121.64,115.528 C120.919996,117.064008 120.080005,118.359995 119.12,119.416 C118.159995,120.472005 117.056006,121.215998 115.808,121.648 C114.559994,122.080002 113.216007,121.912004 111.776,121.144 C108.127982,118.263986 104.984013,114.78402 102.344,110.704 C99.7039868,106.62398 97.4240096,102.304023 95.504,97.744 C93.5839904,93.1839772 91.9520067,88.504024 90.608,83.704 C89.2639933,78.903976 88.0160058,74.2960221 86.864,69.88 C85.8079947,65.079976 84.9680031,60.0880259 84.344,54.904 C83.7199969,49.7199741 83.5999981,44.6080252 83.984,39.568 C84.3680019,34.5279748 85.3519921,29.704023 86.936,25.096 C88.5200079,20.487977 90.9439837,16.3600182 94.208,12.712 C96.2240101,10.4079885 98.7439849,8.20001056 101.768,6.088 C104.792015,3.97598944 107.887984,2.48800432 111.056,1.624 C114.224016,0.75999568 117.199986,0.75999568 119.984,1.624 C122.768014,2.48800432 124.927992,4.69598224 126.464,8.248 C127.424005,9.97600864 128.143998,12.0159882 128.624,14.368 C129.104002,16.7200118 129.439999,19.2159868 129.632,21.856 C129.824001,24.4960132 129.848001,27.2079861 129.704,29.992 C129.559999,32.7760139 129.344001,35.5119866 129.056,38.2 C128.671998,41.8480182 128.120004,45.3039837 127.4,48.568 C126.679996,51.8320163 125.816005,55.0479842 124.808,58.216 C123.799995,61.3840158 122.648006,64.5519842 121.352,67.72 C120.055994,70.8880158 118.688007,74.2479822 117.248,77.8 L117.248,77.8 Z M101.552,21.496 C99.5359899,24.7600163 98.432001,28.8159758 98.24,33.664 C98.047999,38.5120242 98.4079954,43.5759736 99.32,48.856 C100.232005,54.1360264 101.431993,59.271975 102.92,64.264 C104.408007,69.256025 105.823993,73.5279822 107.168,77.08 C108.512007,72.7599784 109.903993,68.3200228 111.344,63.76 C112.784007,59.1999772 113.839997,54.520024 114.512,49.72 C114.896002,45.0159765 115.088,40.7440192 115.088,36.904 C115.088,33.0639808 114.464006,28.8880226 113.216,24.376 C112.447996,22.9359928 111.656004,21.5920062 110.84,20.344 C110.023996,19.0959938 108.896007,18.472 107.456,18.472 C106.303994,18.279999 105.128006,18.5679962 103.928,19.336 C102.727994,20.1040038 101.936002,20.8239966 101.552,21.496 L101.552,21.496 Z M188.096,78.376 C187.711998,76.5519909 188.119994,74.344013 189.32,71.752 C190.520006,69.159987 191.983991,66.9520091 193.712,65.128 C195.440009,63.3039909 197.191991,62.2240017 198.968,61.888 C200.744009,61.5519983 202.015996,62.679987 202.784,65.272 C203.552004,68.9200182 204.343996,72.4959825 205.16,76 C205.976004,79.5040175 206.815996,82.9839827 207.68,86.44 C211.424019,81.2559741 215.959973,76.8160185 221.288,73.12 C226.616027,69.4239815 232.375969,66.5440103 238.568,64.48 C244.760031,62.4159897 251.311965,61.1920019 258.224,60.808 C265.136035,60.4239981 272.047965,60.9039933 278.96,62.248 C280.400007,62.440001 281.359998,63.135994 281.84,64.336 C282.320002,65.536006 282.464001,66.9279921 282.272,68.512 C282.079999,70.0960079 281.600004,71.7999909 280.832,73.624 C280.063996,75.4480091 279.152005,77.0799928 278.096,78.52 C277.039995,79.9600072 275.936006,81.1119957 274.784,81.976 C273.631994,82.8400043 272.576005,83.1280014 271.616,82.84 C268.159983,82.0719962 264.368021,81.5200017 260.24,81.184 C256.111979,80.8479983 251.912021,80.7999988 247.64,81.04 C243.367979,81.2800012 239.168021,81.903995 235.04,82.912 C230.911979,83.920005 227.192017,85.4319899 223.88,87.448 C220.567983,89.4640101 217.808011,92.0079846 215.6,95.08 C213.391989,98.1520154 212.048002,101.895978 211.568,106.312 C211.472,108.520011 210.536009,110.895987 208.76,113.44 C206.983991,115.984013 204.992011,117.975993 202.784,119.416 C202.399998,119.800002 201.872003,120.063999 201.2,120.208 C200.527997,120.352001 199.880003,120.376 199.256,120.28 C198.631997,120.184 198.080002,119.968002 197.6,119.632 C197.119998,119.295998 196.88,118.744004 196.88,117.976 C195.439993,111.351967 193.976007,104.752033 192.488,98.176 C190.999993,91.5999671 189.536007,85.0000331 188.096,78.376 L188.096,78.376 Z M299.984,96.376 C299.503998,94.2639894 299.839994,92.008012 300.992,89.608 C302.144006,87.207988 303.559992,85.1920082 305.24,83.56 C306.920008,81.9279918 308.551992,80.9440017 310.136,80.608 C311.720008,80.2719983 312.751998,81.1119899 313.232,83.128 C313.904003,84.9520091 314.623996,86.9199894 315.392,89.032 C316.160004,91.1440106 316.999995,93.2319897 317.912,95.296 C318.824005,97.3600103 319.927994,99.3519904 321.224,101.272 C322.520006,103.19201 324.079991,104.871993 325.904,106.312 C330.320022,109.288015 334.711978,110.512003 339.08,109.984 C343.448022,109.455997 347.839978,107.752014 352.256,104.872 C353.696007,104.103996 355.039994,103.863999 356.288,104.152 C357.536006,104.440001 358.16,105.687989 358.16,107.896 C358.16,110.104011 357.488007,112.335989 356.144,114.592 C354.799993,116.848011 353.024011,118.98399 350.816,121 C348.607989,122.92001 346.112014,124.527994 343.328,125.824 C340.543986,127.120006 337.664015,128.031997 334.688,128.56 C331.711985,129.088003 328.712015,129.112002 325.688,128.632 C322.663985,128.151998 319.808013,127.048009 317.12,125.32 C311.935974,121.671982 308.096012,117.424024 305.6,112.576 C303.103988,107.727976 301.232006,102.32803 299.984,96.376 L299.984,96.376 Z M294.944,72.472 C293.503993,72.472 292.496003,71.9920048 291.92,71.032 C291.343997,70.0719952 291.127999,68.896007 291.272,67.504 C291.416001,66.111993 291.847996,64.5760084 292.568,62.896 C293.288004,61.2159916 294.151995,59.680007 295.16,58.288 C296.168005,56.895993 297.295994,55.7200048 298.544,54.76 C299.792006,53.7999952 301.039994,53.32 302.288,53.32 C306.704022,53.32 311.095978,53.2720005 315.464,53.176 C319.832022,53.0799995 324.223978,52.6480038 328.64,51.88 C330.176008,51.4959981 331.255997,51.6639964 331.88,52.384 C332.504003,53.1040036 332.768,54.1359933 332.672,55.48 C332.576,56.8240067 332.168004,58.3119918 331.448,59.944 C330.727996,61.5760082 329.840005,63.1599923 328.784,64.696 C327.727995,66.2320077 326.552006,67.5759942 325.256,68.728 C323.959994,69.8800058 322.640007,70.5999986 321.296,70.888 C316.879978,71.6560038 312.488022,72.1119993 308.12,72.256 C303.751978,72.4000007 299.360022,72.472 294.944,72.472 L294.944,72.472 Z M425.408,69.448 C426.560006,70.2160038 426.752004,71.3919921 425.984,72.976 C425.215996,74.5600079 423.992008,76.047993 422.312,77.44 C420.631992,78.832007 418.78401,79.9359959 416.768,80.752 C414.75199,81.5680041 413.072007,81.5920038 411.728,80.824 C410.575994,79.9599957 408.99201,78.9040062 406.976,77.656 C404.95999,76.4079938 402.96801,75.2320055 401,74.128 C399.03199,73.0239945 397.280008,72.1120036 395.744,71.392 C394.207992,70.6719964 393.344001,70.4559986 393.152,70.744 C392.959999,71.1280019 393.367995,71.8959942 394.376,73.048 C395.384005,74.2000058 396.751991,75.5919918 398.48,77.224 C400.208009,78.8560082 402.199989,80.6319904 404.456,82.552 C406.712011,84.4720096 409.015988,86.3919904 411.368,88.312 C413.720012,90.2320096 416.023989,92.0559914 418.28,93.784 C420.536011,95.5120086 422.527991,96.9999938 424.256,98.248 C425.696007,99.3040053 426.487999,100.575993 426.632,102.064 C426.776001,103.552007 426.512003,105.111992 425.84,106.744 C425.167997,108.376008 424.184006,109.983992 422.888,111.568 C421.591994,113.152008 420.176008,114.615993 418.64,115.96 C416.431989,117.88001 414.056013,119.439994 411.512,120.64 C408.967987,121.840006 406.280014,122.847996 403.448,123.664 C400.615986,124.480004 397.712015,125.103998 394.736,125.536 C391.759985,125.968002 388.736015,126.375998 385.664,126.76 C383.263988,126.76 380.720013,126.736 378.032,126.688 C375.343987,126.64 372.632014,126.448002 369.896,126.112 C367.159986,125.775998 364.424014,125.224004 361.688,124.456 C358.951986,123.687996 356.384012,122.632007 353.984,121.288 C352.255991,120.231995 351.368,118.408013 351.32,115.816 C351.272,113.223987 351.727995,110.656013 352.688,108.112 C353.648005,105.567987 354.991991,103.528008 356.72,101.992 C358.448009,100.455992 360.223991,100.215995 362.048,101.272 C366.656023,104.056014 371.455975,106.071994 376.448,107.32 C381.440025,108.568006 385.92798,109.311999 389.912,109.552 C393.89602,109.792001 396.991989,109.672002 399.2,109.192 C401.408011,108.711998 402.080004,108.088004 401.216,107.32 C398.047984,105.687992 394.856016,103.792011 391.64,101.632 C388.423984,99.4719892 385.592012,96.9520144 383.144,94.072 C380.695988,91.1919856 378.800007,87.9760178 377.456,84.424 C376.111993,80.8719822 375.727997,76.9360216 376.304,72.616 C376.688002,70.215988 377.575993,67.8640115 378.968,65.56 C380.360007,63.2559885 382.06399,61.2640084 384.08,59.584 C386.09601,57.9039916 388.327988,56.6800038 390.776,55.912 C393.224012,55.1439962 395.647988,55.0959966 398.048,55.768 C400.06401,56.1520019 402.319988,56.7999954 404.816,57.712 C407.312012,58.6240046 409.783988,59.7279935 412.232,61.024 C414.680012,62.3200065 417.055988,63.6879928 419.36,65.128 C421.664012,66.5680072 423.679991,68.0079928 425.408,69.448 L425.408,69.448 Z M461.408,18.328 C461.984003,17.5599962 462.655996,16.6240055 463.424,15.52 C464.192004,14.4159945 465.151994,13.3360053 466.304,12.28 C467.456006,11.2239947 468.823992,10.3120038 470.408,9.544 C471.992008,8.77599616 473.79199,8.29600096 475.808,8.104 C477.72801,7.81599856 478.831999,8.3919928 479.12,9.832 C479.408001,11.2720072 478.304012,13.9119808 475.808,17.752 C473.983991,19.960011 472.328007,22.6479842 470.84,25.816 C469.351993,28.9840158 467.936007,31.9119866 466.592,34.6 C487.136103,33.0639923 506.479909,31.2160108 524.624,29.056 C542.768091,26.8959892 560.431914,24.616012 577.616,22.216 C578.768006,22.023999 579.655997,22.1199981 580.28,22.504 C580.904003,22.8880019 581.335999,23.4399964 581.576,24.16 C581.816001,24.8800036 581.888,25.7199952 581.792,26.68 C581.696,27.6400048 581.456002,28.5519957 581.072,29.416 C580.303996,31.624011 578.768012,33.4959923 576.464,35.032 C574.159988,36.5680077 571.424016,37.6239971 568.256,38.2 C559.327955,39.7360077 550.112048,41.3439916 540.608,43.024 C531.103952,44.7040084 521.648047,46.2879926 512.24,47.776 C502.831953,49.2640074 493.688044,50.607994 484.808,51.808 C475.927956,53.008006 467.696038,53.8959971 460.112,54.472 C459.535997,57.064013 458.936003,59.5839878 458.312,62.032 C457.687997,64.4800122 457.160002,67.0719863 456.728,69.808 C456.295998,72.5440137 455.984001,75.5439837 455.792,78.808 C455.599999,82.0720163 455.599999,85.7679794 455.792,89.896 C455.888,92.2000115 456.175998,94.4079894 456.656,96.52 C457.136002,98.6320106 457.903995,100.407993 458.96,101.848 C460.016005,103.288007 461.479991,104.295997 463.352,104.872 C465.224009,105.448003 467.599986,105.352004 470.48,104.584 C476.336029,103.143993 482.119971,101.008014 487.832,98.176 C493.544029,95.3439858 498.991974,92.1040182 504.176,88.456 C505.424006,87.4959952 506.671994,87.3759964 507.92,88.096 C509.168006,88.8160036 509.887999,90.4239875 510.08,92.92 C510.176,95.4160125 509.480007,97.767989 507.992,99.976 C506.503993,102.184011 504.75201,104.199991 502.736,106.024 C500.047987,108.424012 497.120016,110.751989 493.952,113.008 C490.783984,115.264011 487.424018,117.279991 483.872,119.056 C480.319982,120.832009 476.672019,122.271994 472.928,123.376 C469.183981,124.480006 465.440019,125.08 461.696,125.176 C458.047982,125.272 455.072012,124.816005 452.768,123.808 C450.463988,122.799995 448.616007,121.360009 447.224,119.488 C445.831993,117.615991 444.824003,115.408013 444.2,112.864 C443.575997,110.319987 443.072002,107.560015 442.688,104.584 C442.207998,99.2079731 441.968,94.2640226 441.968,89.752 C441.968,85.2399774 442.183998,81.0160197 442.616,77.08 C443.048002,73.1439803 443.623996,69.4480173 444.344,65.992 C445.064004,62.5359827 445.951995,59.1280168 447.008,55.768 C442.399977,56.2480024 438.200019,56.7519974 434.408,57.28 C430.615981,57.8080026 426.416023,58.3599971 421.808,58.936 C420.367993,58.936 419.432002,58.5280041 419,57.712 C418.567998,56.8959959 418.4,55.9360055 418.496,54.832 C418.592,53.7279945 418.855998,52.6240055 419.288,51.52 C419.720002,50.4159945 420.031999,49.5760029 420.224,49 C421.280005,46.2159861 422.623992,43.8160101 424.256,41.8 C425.888008,39.7839899 427.519992,38.6320014 429.152,38.344 C431.456012,38.151999 433.543991,37.960001 435.416,37.768 C437.288009,37.575999 439.135991,37.4080007 440.96,37.264 C442.784009,37.1199993 444.65599,36.952001 446.576,36.76 C448.49601,36.567999 450.607988,36.376001 452.912,36.184 C453.680004,33.975989 454.879992,31.168017 456.512,27.76 C458.144008,24.351983 459.775992,21.2080144 461.408,18.328 L461.408,18.328 Z M499.856,116.536 C498.607994,112.791981 498.319997,109.000019 498.992,105.16 C499.664003,101.319981 500.911991,97.5280187 502.736,93.784 C504.560009,90.0399813 506.743987,86.4160175 509.288,82.912 C511.832013,79.4079825 514.351988,76.0720158 516.848,72.904 C515.983996,72.8079995 515.096005,72.7360002 514.184,72.688 C513.271995,72.6399998 512.384004,72.616 511.52,72.616 C510.655996,72.616 510.080001,72.2800034 509.792,71.608 C509.503999,70.9359966 509.336,70.096005 509.288,69.088 C509.24,68.079995 509.311999,67.0960048 509.504,66.136 C509.696001,65.1759952 509.887999,64.4080029 510.08,63.832 C510.464002,62.6799942 510.943997,61.504006 511.52,60.304 C512.096003,59.103994 512.791996,58.000005 513.608,56.992 C514.424004,55.983995 515.383994,55.1680031 516.488,54.544 C517.592006,53.9199969 518.863993,53.608 520.304,53.608 C523.952018,53.2239981 527.911979,53.2959974 532.184,53.824 C536.456021,54.3520026 540.655979,55.3599926 544.784,56.848 C548.912021,58.3360074 552.799982,60.279988 556.448,62.68 C560.096018,65.080012 563.215987,67.9119837 565.808,71.176 C568.688014,75.2080202 570.223999,79.5999762 570.416,84.352 C570.608001,89.1040238 569.840009,93.783977 568.112,98.392 C566.383991,103.000023 563.888016,107.29598 560.624,111.28 C557.359984,115.26402 553.71202,118.503988 549.68,121 C547.471989,122.440007 544.832015,123.855993 541.76,125.248 C538.687985,126.640007 535.472017,127.767996 532.112,128.632 C528.751983,129.496004 525.368017,130.047999 521.96,130.288 C518.551983,130.528001 515.360015,130.240004 512.384,129.424 C509.407985,128.607996 506.816011,127.16801 504.608,125.104 C502.399989,123.03999 500.816005,120.184018 499.856,116.536 L499.856,116.536 Z M545.216,81.4 C540.607977,78.4239851 535.32803,76.2160072 529.376,74.776 C528.799997,75.6400043 528.224003,76.3599971 527.648,76.936 C526.591995,78.3760072 525.03201,80.1759892 522.968,82.336 C520.90399,84.4960108 518.936009,86.7519882 517.064,89.104 C515.191991,91.4560118 513.776005,93.8799875 512.816,96.376 C511.855995,98.8720125 511.903995,101.223989 512.96,103.432 C514.784009,106.696016 517.399983,108.855995 520.808,109.912 C524.216017,110.968005 527.815981,111.280002 531.608,110.848 C535.400019,110.415998 539.167981,109.456007 542.912,107.968 C546.656019,106.479993 549.823987,104.824009 552.416,103 C554.624011,101.175991 555.895998,99.3040096 556.232,97.384 C556.568002,95.4639904 556.280005,93.5680094 555.368,91.696 C554.455995,89.8239906 553.088009,88.0000089 551.264,86.224 C549.439991,84.4479911 547.424011,82.8400072 545.216,81.4 L545.216,81.4 Z M630.896,71.032 C630.511998,73.5280125 629.672006,75.7839899 628.376,77.8 C627.079994,79.8160101 625.736007,81.327995 624.344,82.336 C622.951993,83.344005 621.752005,83.6560019 620.744,83.272 C619.735995,82.8879981 619.327999,81.4480125 619.52,78.952 C619.616,74.6319784 619.112006,70.768017 618.008,67.36 C616.903994,63.951983 615.536008,60.9760127 613.904,58.432 C612.271992,55.8879873 610.49601,53.8240079 608.576,52.24 C606.65599,50.6559921 604.976007,49.5280034 603.536,48.856 C602.479995,48.3759976 601.712002,48.4239971 601.232,49 C600.751998,49.5760029 600.416001,50.4879938 600.224,51.736 C600.031999,53.1760072 599.936,54.9519894 599.936,57.064 C599.936,59.1760106 600.055999,61.3839885 600.296,63.688 C600.536001,65.9920115 600.871998,68.2719887 601.304,70.528 C601.736002,72.7840113 602.335996,74.8239909 603.104,76.648 C604.736008,81.5440245 606.679989,86.1519784 608.936,90.472 C611.192011,94.7920216 613.711986,99.0159794 616.496,103.144 C618.41601,102.855999 620.35999,102.592001 622.328,102.352 C624.29601,102.111999 626.23999,101.848001 628.16,101.56 C637.760048,100.023992 647.407952,98.8960036 657.104,98.176 C666.800048,97.4559964 676.207954,96.6160048 685.328,95.656 C686.672007,95.463999 687.631997,95.7519962 688.208,96.52 C688.784003,97.2880038 689.048,98.3439933 689,99.688 C688.952,101.032007 688.616003,102.495992 687.992,104.08 C687.367997,105.664008 686.552005,107.199993 685.544,108.688 C684.535995,110.176007 683.384006,111.471994 682.088,112.576 C680.791994,113.680006 679.424007,114.375999 677.984,114.664 C674.527983,115.144002 670.80802,115.575998 666.824,115.96 C662.83998,116.344002 658.760021,116.751998 654.584,117.184 C650.407979,117.616002 646.184021,118.047998 641.912,118.48 C637.639979,118.912002 633.48802,119.415997 629.456,119.992 C635.792032,127.192036 642.415965,134.175966 649.328,140.944 C656.240035,147.712034 662.863968,154.599965 669.2,161.608 C670.160005,163.144008 670.376003,165.063988 669.848,167.368 C669.319997,169.672012 668.144009,171.951989 666.32,174.208 C664.495991,176.464011 662.072015,178.479991 659.048,180.256 C656.023985,182.032009 652.54402,183.159998 648.608,183.64 C642.751971,184.408004 636.656032,184.480003 630.32,183.856 C623.983968,183.231997 617.888029,182.200007 612.032,180.76 C605.407967,179.223992 598.856032,177.376011 592.376,175.216 C585.895968,173.055989 579.728029,170.488015 573.872,167.512 C572.047991,166.359994 570.10401,165.064007 568.04,163.624 C565.97599,162.183993 564.032009,160.600009 562.208,158.872 C560.383991,157.143991 558.800007,155.27201 557.456,153.256 C556.111993,151.23999 555.248002,149.128011 554.864,146.92 C554.479998,144.327987 554.527998,141.784012 555.008,139.288 C555.488002,136.791988 556.279994,134.392012 557.384,132.088 C558.488006,129.783988 559.831992,127.64801 561.416,125.68 C563.000008,123.71199 564.703991,122.008007 566.528,120.568 C570.56002,116.919982 575.023976,114.040011 579.92,111.928 C584.816024,109.815989 589.999973,108.088007 595.472,106.744 C592.207984,100.503969 589.736008,94.0000338 588.056,87.232 C586.375992,80.4639662 585.536,73.480036 585.536,66.28 C585.536,63.3999856 585.727998,60.4480151 586.112,57.424 C586.496002,54.3999849 587.047996,51.5200137 587.768,48.784 C588.488004,46.0479863 589.399994,43.5520113 590.504,41.296 C591.608006,39.0399887 592.879993,37.1440077 594.32,35.608 C597.296015,32.6319851 600.319985,30.5920055 603.392,29.488 C606.464015,28.3839945 609.823982,28.935989 613.472,31.144 C616.736016,32.9680091 619.567988,35.5359834 621.968,38.848 C624.368012,42.1600166 626.287993,45.711981 627.728,49.504 C629.168007,53.296019 630.151997,57.1119808 630.68,60.952 C631.208003,64.7920192 631.280002,68.1519856 630.896,71.032 L630.896,71.032 Z M642.56,163.768 C636.223968,157.335968 629.888032,150.808033 623.552,144.184 C617.215968,137.559967 611.360027,130.648036 605.984,123.448 C603.583988,123.928002 601.184012,124.383998 598.784,124.816 C596.383988,125.248002 593.936012,125.799997 591.44,126.472 C588.079983,127.432005 585.032014,128.463994 582.296,129.568 C579.559986,130.672006 577.328009,131.799994 575.6,132.952 C573.871991,134.104006 572.696003,135.255994 572.072,136.408 C571.447997,137.560006 571.567996,138.615995 572.432,139.576 C574.256009,141.400009 576.319988,143.055993 578.624,144.544 C580.928012,146.032007 583.303988,147.375994 585.752,148.576 C588.200012,149.776006 590.671988,150.855995 593.168,151.816 C595.664012,152.776005 598.015989,153.591997 600.224,154.264 C606.17603,156.472011 612.295969,158.295993 618.584,159.736 C624.872031,161.176007 630.99197,162.279996 636.944,163.048 C637.904005,163.240001 638.839995,163.384 639.752,163.48 C640.664005,163.576 641.599995,163.672 642.56,163.768 L642.56,163.768 Z M705.344,71.032 C704.959998,73.5280125 704.120006,75.7839899 702.824,77.8 C701.527994,79.8160101 700.184007,81.327995 698.792,82.336 C697.399993,83.344005 696.200005,83.6560019 695.192,83.272 C694.183995,82.8879981 693.775999,81.4480125 693.968,78.952 C694.064,74.6319784 693.560006,70.768017 692.456,67.36 C691.351994,63.951983 689.984008,60.9760127 688.352,58.432 C686.719992,55.8879873 684.94401,53.8240079 683.024,52.24 C681.10399,50.6559921 679.424007,49.5280034 677.984,48.856 C676.927995,48.3759976 676.160002,48.4239971 675.68,49 C675.199998,49.5760029 674.864001,50.4879938 674.672,51.736 C674.479999,53.1760072 674.384,54.9519894 674.384,57.064 C674.384,59.1760106 674.503999,61.3839885 674.744,63.688 C674.984001,65.9920115 675.319998,68.2719887 675.752,70.528 C676.184002,72.7840113 676.783996,74.8239909 677.552,76.648 C679.184008,81.5440245 681.127989,86.1519784 683.384,90.472 C685.640011,94.7920216 688.159986,99.0159794 690.944,103.144 C692.86401,102.855999 694.80799,102.592001 696.776,102.352 C698.74401,102.111999 700.68799,101.848001 702.608,101.56 C712.208048,100.023992 721.855952,98.8960036 731.552,98.176 C741.248048,97.4559964 750.655954,96.6160048 759.776,95.656 C761.120007,95.463999 762.079997,95.7519962 762.656,96.52 C763.232003,97.2880038 763.496,98.3439933 763.448,99.688 C763.4,101.032007 763.064003,102.495992 762.44,104.08 C761.815997,105.664008 761.000005,107.199993 759.992,108.688 C758.983995,110.176007 757.832006,111.471994 756.536,112.576 C755.239994,113.680006 753.872007,114.375999 752.432,114.664 C748.975983,115.144002 745.25602,115.575998 741.272,115.96 C737.28798,116.344002 733.208021,116.751998 729.032,117.184 C724.855979,117.616002 720.632021,118.047998 716.36,118.48 C712.087979,118.912002 707.93602,119.415997 703.904,119.992 C710.240032,127.192036 716.863965,134.175966 723.776,140.944 C730.688035,147.712034 737.311968,154.599965 743.648,161.608 C744.608005,163.144008 744.824003,165.063988 744.296,167.368 C743.767997,169.672012 742.592009,171.951989 740.768,174.208 C738.943991,176.464011 736.520015,178.479991 733.496,180.256 C730.471985,182.032009 726.99202,183.159998 723.056,183.64 C717.199971,184.408004 711.104032,184.480003 704.768,183.856 C698.431968,183.231997 692.336029,182.200007 686.48,180.76 C679.855967,179.223992 673.304032,177.376011 666.824,175.216 C660.343968,173.055989 654.176029,170.488015 648.32,167.512 C646.495991,166.359994 644.55201,165.064007 642.488,163.624 C640.42399,162.183993 638.480009,160.600009 636.656,158.872 C634.831991,157.143991 633.248007,155.27201 631.904,153.256 C630.559993,151.23999 629.696002,149.128011 629.312,146.92 C628.927998,144.327987 628.975998,141.784012 629.456,139.288 C629.936002,136.791988 630.727994,134.392012 631.832,132.088 C632.936006,129.783988 634.279992,127.64801 635.864,125.68 C637.448008,123.71199 639.151991,122.008007 640.976,120.568 C645.00802,116.919982 649.471976,114.040011 654.368,111.928 C659.264024,109.815989 664.447973,108.088007 669.92,106.744 C666.655984,100.503969 664.184008,94.0000338 662.504,87.232 C660.823992,80.4639662 659.984,73.480036 659.984,66.28 C659.984,63.3999856 660.175998,60.4480151 660.56,57.424 C660.944002,54.3999849 661.495996,51.5200137 662.216,48.784 C662.936004,46.0479863 663.847994,43.5520113 664.952,41.296 C666.056006,39.0399887 667.327993,37.1440077 668.768,35.608 C671.744015,32.6319851 674.767985,30.5920055 677.84,29.488 C680.912015,28.3839945 684.271982,28.935989 687.92,31.144 C691.184016,32.9680091 694.015988,35.5359834 696.416,38.848 C698.816012,42.1600166 700.735993,45.711981 702.176,49.504 C703.616007,53.296019 704.599997,57.1119808 705.128,60.952 C705.656003,64.7920192 705.728002,68.1519856 705.344,71.032 L705.344,71.032 Z M717.008,163.768 C710.671968,157.335968 704.336032,150.808033 698,144.184 C691.663968,137.559967 685.808027,130.648036 680.432,123.448 C678.031988,123.928002 675.632012,124.383998 673.232,124.816 C670.831988,125.248002 668.384012,125.799997 665.888,126.472 C662.527983,127.432005 659.480014,128.463994 656.744,129.568 C654.007986,130.672006 651.776009,131.799994 650.048,132.952 C648.319991,134.104006 647.144003,135.255994 646.52,136.408 C645.895997,137.560006 646.015996,138.615995 646.88,139.576 C648.704009,141.400009 650.767988,143.055993 653.072,144.544 C655.376012,146.032007 657.751988,147.375994 660.2,148.576 C662.648012,149.776006 665.119988,150.855995 667.616,151.816 C670.112012,152.776005 672.463989,153.591997 674.672,154.264 C680.62403,156.472011 686.743969,158.295993 693.032,159.736 C699.320031,161.176007 705.43997,162.279996 711.392,163.048 C712.352005,163.240001 713.287995,163.384 714.2,163.48 C715.112005,163.576 716.047995,163.672 717.008,163.768 L717.008,163.768 Z M746.816,94.216 C745.567994,93.4479962 744.824001,92.3440072 744.584,90.904 C744.343999,89.4639928 744.439998,87.9280082 744.872,86.296 C745.304002,84.6639918 745.999995,83.0320082 746.96,81.4 C747.920005,79.7679918 748.975994,78.352006 750.128,77.152 C751.280006,75.951994 752.479994,75.1360022 753.728,74.704 C754.976006,74.2719978 756.079995,74.4399962 757.04,75.208 C757.616003,75.5920019 758.239997,75.9279986 758.912,76.216 C759.584003,76.5040014 760.255997,76.8399981 760.928,77.224 C761.696004,76.0719942 762.487996,74.9440055 763.304,73.84 C764.120004,72.7359945 764.959996,71.7040048 765.824,70.744 C767.456008,68.7279899 769.183991,66.8080091 771.008,64.984 C772.832009,63.1599909 774.847989,61.5040074 777.056,60.016 C779.264011,58.5279926 781.735986,57.2560053 784.472,56.2 C787.208014,55.1439947 790.303983,54.3280029 793.76,53.752 C798.176022,53.2719976 801.895985,53.3919964 804.92,54.112 C807.944015,54.8320036 810.079994,55.9599923 811.328,57.496 C813.24801,59.704011 814.088001,62.4639834 813.848,65.776 C813.607999,69.0880166 812.768007,72.2319851 811.328,75.208 C809.215989,79.6240221 806.360018,83.4159842 802.76,86.584 C799.159982,89.7520158 795.248021,92.3439899 791.024,94.36 C786.799979,96.3760101 782.480022,97.8639952 778.064,98.824 C773.647978,99.7840048 769.568019,100.312 765.824,100.408 C767.360008,103.384015 769.495986,105.591993 772.232,107.032 C774.968014,108.472007 777.991983,109.311999 781.304,109.552 C784.616017,109.792001 788.143981,109.528004 791.888,108.76 C795.632019,107.991996 799.327982,106.912007 802.976,105.52 C806.624018,104.127993 810.103983,102.520009 813.416,100.696 C816.728017,98.8719909 819.631988,97.0000096 822.128,95.08 C824.04801,93.6399928 825.511995,92.9679995 826.52,93.064 C827.528005,93.1600005 828.08,94.311989 828.176,96.52 C828.272,98.728011 827.33601,101.319985 825.368,104.296 C823.39999,107.272015 820.688017,110.199986 817.232,113.08 C813.583982,115.864014 809.528022,118.311989 805.064,120.424 C800.599978,122.536011 796.016024,124.119995 791.312,125.176 C786.607976,126.232005 781.952023,126.664001 777.344,126.472 C772.735977,126.279999 768.41602,125.272009 764.384,123.448 C759.199974,120.567986 755.816008,116.800023 754.232,112.144 C752.647992,107.487977 752.239996,102.616025 753.008,97.528 C751.951995,97.0479976 750.920005,96.5440026 749.912,96.016 C748.903995,95.4879974 747.872005,94.8880034 746.816,94.216 L746.816,94.216 Z M799.664,77.08 C799.952001,76.0239947 799.640005,75.2320026 798.728,74.704 C797.815995,74.1759974 796.496009,73.8880002 794.768,73.84 C793.039991,73.7919998 791.048011,73.9839978 788.792,74.416 C786.535989,74.8480022 784.304011,75.3999966 782.096,76.072 C779.887989,76.7440034 777.75201,77.583995 775.688,78.592 C773.62399,79.600005 771.968006,80.6319947 770.72,81.688 C773.792015,82.7440053 776.983983,83.5119976 780.296,83.992 C783.608017,84.4720024 787.087982,84.2320048 790.736,83.272 C793.136012,82.5039962 795.055993,81.6400048 796.496,80.68 C797.936007,79.7199952 798.991997,78.5200072 799.664,77.08 L799.664,77.08 Z M823.856,78.376 C823.471998,76.5519909 823.879994,74.344013 825.08,71.752 C826.280006,69.159987 827.743991,66.9520091 829.472,65.128 C831.200009,63.3039909 832.951991,62.2240017 834.728,61.888 C836.504009,61.5519983 837.775996,62.679987 838.544,65.272 C839.312004,68.9200182 840.103996,72.4959825 840.92,76 C841.736004,79.5040175 842.575996,82.9839827 843.44,86.44 C847.184019,81.2559741 851.719973,76.8160185 857.048,73.12 C862.376027,69.4239815 868.135969,66.5440103 874.328,64.48 C880.520031,62.4159897 887.071965,61.1920019 893.984,60.808 C900.896035,60.4239981 907.807965,60.9039933 914.72,62.248 C916.160007,62.440001 917.119998,63.135994 917.6,64.336 C918.080002,65.536006 918.224001,66.9279921 918.032,68.512 C917.839999,70.0960079 917.360004,71.7999909 916.592,73.624 C915.823996,75.4480091 914.912005,77.0799928 913.856,78.52 C912.799995,79.9600072 911.696006,81.1119957 910.544,81.976 C909.391994,82.8400043 908.336005,83.1280014 907.376,82.84 C903.919983,82.0719962 900.128021,81.5200017 896,81.184 C891.871979,80.8479983 887.672021,80.7999988 883.4,81.04 C879.127979,81.2800012 874.928021,81.903995 870.8,82.912 C866.671979,83.920005 862.952017,85.4319899 859.64,87.448 C856.327983,89.4640101 853.568011,92.0079846 851.36,95.08 C849.151989,98.1520154 847.808002,101.895978 847.328,106.312 C847.232,108.520011 846.296009,110.895987 844.52,113.44 C842.743991,115.984013 840.752011,117.975993 838.544,119.416 C838.159998,119.800002 837.632003,120.063999 836.96,120.208 C836.287997,120.352001 835.640003,120.376 835.016,120.28 C834.391997,120.184 833.840002,119.968002 833.36,119.632 C832.879998,119.295998 832.64,118.744004 832.64,117.976 C831.199993,111.351967 829.736007,104.752033 828.248,98.176 C826.759993,91.5999671 825.296007,85.0000331 823.856,78.376 L823.856,78.376 Z M973.04,78.52 C971.599993,79.5760053 970.232006,80.104 968.936,80.104 C967.639994,80.104 966.992,79.5760053 966.992,78.52 C966.703999,77.3679942 966.727998,76.1440065 967.064,74.848 C967.400002,73.5519935 967.879997,72.304006 968.504,71.104 C969.128003,69.903994 969.871996,68.7520055 970.736,67.648 C971.600004,66.5439945 972.463996,65.5600043 973.328,64.696 C976.304015,61.7199851 979.303985,58.6960154 982.328,55.624 C985.352015,52.5519846 988.519983,49.6960132 991.832,47.056 C995.144017,44.4159868 998.671981,42.0640103 1002.416,40 C1006.16002,37.9359897 1010.23998,36.4720043 1014.656,35.608 C1017.63201,35.0319971 1020.51199,34.9119983 1023.296,35.248 C1026.08001,35.5840017 1028.76799,36.255995 1031.36,37.264 C1033.95201,38.272005 1036.39999,39.5439923 1038.704,41.08 C1041.00801,42.6160077 1043.11999,44.2479914 1045.04,45.976 C1052.14404,52.6000331 1058.45597,59.9199599 1063.976,67.936 C1069.49603,75.9520401 1074.27198,84.3759558 1078.304,93.208 C1082.72002,92.7279976 1087.03998,92.3680012 1091.264,92.128 C1095.48802,91.8879988 1099.71198,91.6240014 1103.936,91.336 C1105.08801,91.2399995 1105.928,91.4079978 1106.456,91.84 C1106.984,92.2720022 1107.296,92.8479964 1107.392,93.568 C1107.488,94.2880036 1107.416,95.0799957 1107.176,95.944 C1106.936,96.8080043 1106.672,97.6239962 1106.384,98.392 C1105.904,100.120009 1104.89601,101.871991 1103.36,103.648 C1101.82399,105.424009 1100.14401,106.312 1098.32,106.312 C1096.01599,106.600001 1093.68801,106.887999 1091.336,107.176 C1088.98399,107.464001 1086.60801,107.703999 1084.208,107.896 C1086.12801,113.560028 1087.75999,119.295971 1089.104,125.104 C1090.44801,130.912029 1091.336,136.695971 1091.768,142.456 C1092.2,148.216029 1092.128,153.927972 1091.552,159.592 C1090.976,165.256028 1089.72801,170.727974 1087.808,176.008 C1085.79199,181.576028 1083.34401,186.687977 1080.464,191.344 C1077.58399,196.000023 1074.12802,199.911984 1070.096,203.08 C1066.06398,206.248016 1061.40803,208.527993 1056.128,209.92 C1050.84797,211.312007 1044.80003,211.576004 1037.984,210.712 C1032.70397,209.847996 1027.40003,208.480009 1022.072,206.608 C1016.74397,204.735991 1011.70402,202.360014 1006.952,199.48 C1002.19998,196.599986 997.880019,193.19202 993.992,189.256 C990.103981,185.31998 986.960012,180.904024 984.56,176.008 C982.54399,171.111976 981.320002,166.096026 980.888,160.96 C980.455998,155.823974 980.743995,150.832024 981.752,145.984 C982.760005,141.135976 984.463988,136.528022 986.864,132.16 C989.264012,127.791978 992.287982,123.880017 995.936,120.424 C999.776019,116.871982 1003.85598,113.824013 1008.176,111.28 C1012.49602,108.735987 1016.95998,106.552009 1021.568,104.728 C1026.17602,102.903991 1030.85598,101.392006 1035.608,100.192 C1040.36002,98.991994 1045.03998,97.9600043 1049.648,97.096 C1051.76001,96.7119981 1053.84799,96.3520017 1055.912,96.016 C1057.97601,95.6799983 1060.06399,95.3680014 1062.176,95.08 C1058.33598,87.4959621 1053.87203,80.3440336 1048.784,73.624 C1043.69597,66.9039664 1037.84003,61.144024 1031.216,56.344 C1028.23999,54.5199909 1025.55201,53.104005 1023.152,52.096 C1020.75199,51.087995 1018.47201,50.4640012 1016.312,50.224 C1014.15199,49.9839988 1012.01601,50.0799978 1009.904,50.512 C1007.79199,50.9440022 1005.53601,51.7359942 1003.136,52.888 C997.375971,56.5360182 992.072024,60.5679779 987.224,64.984 C982.375976,69.4000221 977.648023,73.911977 973.04,78.52 L973.04,78.52 Z M1071.536,116.968 C1071.056,115.719994 1070.576,114.472006 1070.096,113.224 C1069.616,111.975994 1069.136,110.680007 1068.656,109.336 C1058.67195,110.392005 1048.85605,111.90399 1039.208,113.872 C1029.55995,115.84001 1020.22405,119.127977 1011.2,123.736 C1005.72797,126.520014 1001.09602,130.191977 997.304,134.752 C993.511981,139.312023 991.616,144.56797 991.616,150.52 C991.904001,154.55202 992.911991,158.439981 994.64,162.184 C996.368009,165.928019 998.575987,169.407984 1001.264,172.624 C1003.95201,175.840016 1006.97598,178.719987 1010.336,181.264 C1013.69602,183.808013 1017.10398,185.943991 1020.56,187.672 C1024.59202,189.68801 1029.29597,191.295994 1034.672,192.496 C1040.04803,193.696006 1045.35197,194.200001 1050.584,194.008 C1055.81603,193.815999 1060.63998,192.784009 1065.056,190.912 C1069.47202,189.039991 1072.78399,185.992021 1074.992,181.768 C1077.58401,177.159977 1079.192,172.048028 1079.816,166.432 C1080.44,160.815972 1080.44,155.104029 1079.816,149.296 C1079.192,143.487971 1078.08801,137.800028 1076.504,132.232 C1074.91999,126.663972 1073.26401,121.576023 1071.536,116.968 L1071.536,116.968 Z M1109.984,116.536 C1108.73599,112.791981 1108.448,109.000019 1109.12,105.16 C1109.792,101.319981 1111.03999,97.5280187 1112.864,93.784 C1114.68801,90.0399813 1116.87199,86.4160175 1119.416,82.912 C1121.96001,79.4079825 1124.47999,76.0720158 1126.976,72.904 C1126.112,72.8079995 1125.224,72.7360002 1124.312,72.688 C1123.4,72.6399998 1122.512,72.616 1121.648,72.616 C1120.784,72.616 1120.208,72.2800034 1119.92,71.608 C1119.632,70.9359966 1119.464,70.096005 1119.416,69.088 C1119.368,68.079995 1119.44,67.0960048 1119.632,66.136 C1119.824,65.1759952 1120.016,64.4080029 1120.208,63.832 C1120.592,62.6799942 1121.072,61.504006 1121.648,60.304 C1122.224,59.103994 1122.92,58.000005 1123.736,56.992 C1124.552,55.983995 1125.51199,55.1680031 1126.616,54.544 C1127.72001,53.9199969 1128.99199,53.608 1130.432,53.608 C1134.08002,53.2239981 1138.03998,53.2959974 1142.312,53.824 C1146.58402,54.3520026 1150.78398,55.3599926 1154.912,56.848 C1159.04002,58.3360074 1162.92798,60.279988 1166.576,62.68 C1170.22402,65.080012 1173.34399,67.9119837 1175.936,71.176 C1178.81601,75.2080202 1180.352,79.5999762 1180.544,84.352 C1180.736,89.1040238 1179.96801,93.783977 1178.24,98.392 C1176.51199,103.000023 1174.01602,107.29598 1170.752,111.28 C1167.48798,115.26402 1163.84002,118.503988 1159.808,121 C1157.59999,122.440007 1154.96002,123.855993 1151.888,125.248 C1148.81598,126.640007 1145.60002,127.767996 1142.24,128.632 C1138.87998,129.496004 1135.49602,130.047999 1132.088,130.288 C1128.67998,130.528001 1125.48801,130.240004 1122.512,129.424 C1119.53599,128.607996 1116.94401,127.16801 1114.736,125.104 C1112.52799,123.03999 1110.944,120.184018 1109.984,116.536 L1109.984,116.536 Z M1155.344,81.4 C1150.73598,78.4239851 1145.45603,76.2160072 1139.504,74.776 C1138.928,75.6400043 1138.352,76.3599971 1137.776,76.936 C1136.71999,78.3760072 1135.16001,80.1759892 1133.096,82.336 C1131.03199,84.4960108 1129.06401,86.7519882 1127.192,89.104 C1125.31999,91.4560118 1123.904,93.8799875 1122.944,96.376 C1121.984,98.8720125 1122.03199,101.223989 1123.088,103.432 C1124.91201,106.696016 1127.52798,108.855995 1130.936,109.912 C1134.34402,110.968005 1137.94398,111.280002 1141.736,110.848 C1145.52802,110.415998 1149.29598,109.456007 1153.04,107.968 C1156.78402,106.479993 1159.95199,104.824009 1162.544,103 C1164.75201,101.175991 1166.024,99.3040096 1166.36,97.384 C1166.696,95.4639904 1166.408,93.5680094 1165.496,91.696 C1164.584,89.8239906 1163.21601,88.0000089 1161.392,86.224 C1159.56799,84.4479911 1157.55201,82.8400072 1155.344,81.4 L1155.344,81.4 Z M1221.008,77.8 C1220.048,80.008011 1219.16,81.9759914 1218.344,83.704 C1217.528,85.4320086 1216.688,86.8239947 1215.824,87.88 C1217.64801,91.3360173 1219.61599,94.4079866 1221.728,97.096 C1223.93601,92.6799779 1226.43199,88.2640221 1229.216,83.848 C1232.00001,79.4319779 1235.09598,75.5680166 1238.504,72.256 C1241.91202,68.9439834 1245.60798,66.4480084 1249.592,64.768 C1253.57602,63.0879916 1257.87198,62.8239942 1262.48,63.976 C1267.18402,65.1280058 1270.83199,67.599981 1273.424,71.392 C1276.01601,75.184019 1277.86399,79.5039758 1278.968,84.352 C1280.07201,89.2000242 1280.624,94.1679746 1280.624,99.256 C1280.624,104.344025 1280.432,108.711982 1280.048,112.36 C1280.048,115.336015 1279.37601,117.903989 1278.032,120.064 C1276.68799,122.224011 1274.91201,124.071992 1272.704,125.608 C1270.49599,127.048007 1268.72001,127.456003 1267.376,126.832 C1266.03199,126.207997 1265.36,124.792011 1265.36,122.584 C1265.744,119.991987 1265.984,116.896018 1266.08,113.296 C1266.176,109.695982 1265.96,106.072018 1265.432,102.424 C1264.904,98.7759818 1263.94401,95.3440161 1262.552,92.128 C1261.15999,88.9119839 1259.16801,86.3920091 1256.576,84.568 C1252.92798,82.359989 1249.59202,81.855994 1246.568,83.056 C1243.54398,84.256006 1240.80801,86.3679849 1238.36,89.392 C1235.91199,92.4160151 1233.77601,95.9439798 1231.952,99.976 C1230.12799,104.00802 1228.59201,107.655984 1227.344,110.92 C1226.768,112.456008 1226.12,113.991992 1225.4,115.528 C1224.68,117.064008 1223.84,118.359995 1222.88,119.416 C1221.92,120.472005 1220.81601,121.215998 1219.568,121.648 C1218.31999,122.080002 1216.97601,121.912004 1215.536,121.144 C1211.88798,118.263986 1208.74401,114.78402 1206.104,110.704 C1203.46399,106.62398 1201.18401,102.304023 1199.264,97.744 C1197.34399,93.1839772 1195.71201,88.504024 1194.368,83.704 C1193.02399,78.903976 1191.77601,74.2960221 1190.624,69.88 C1189.56799,65.079976 1188.728,60.0880259 1188.104,54.904 C1187.48,49.7199741 1187.36,44.6080252 1187.744,39.568 C1188.128,34.5279748 1189.11199,29.704023 1190.696,25.096 C1192.28001,20.487977 1194.70398,16.3600182 1197.968,12.712 C1199.98401,10.4079885 1202.50398,8.20001056 1205.528,6.088 C1208.55202,3.97598944 1211.64798,2.48800432 1214.816,1.624 C1217.98402,0.75999568 1220.95999,0.75999568 1223.744,1.624 C1226.52801,2.48800432 1228.68799,4.69598224 1230.224,8.248 C1231.184,9.97600864 1231.904,12.0159882 1232.384,14.368 C1232.864,16.7200118 1233.2,19.2159868 1233.392,21.856 C1233.584,24.4960132 1233.608,27.2079861 1233.464,29.992 C1233.32,32.7760139 1233.104,35.5119866 1232.816,38.2 C1232.432,41.8480182 1231.88,45.3039837 1231.16,48.568 C1230.44,51.8320163 1229.57601,55.0479842 1228.568,58.216 C1227.55999,61.3840158 1226.40801,64.5519842 1225.112,67.72 C1223.81599,70.8880158 1222.44801,74.2479822 1221.008,77.8 L1221.008,77.8 Z M1205.312,21.496 C1203.29599,24.7600163 1202.192,28.8159758 1202,33.664 C1201.808,38.5120242 1202.168,43.5759736 1203.08,48.856 C1203.992,54.1360264 1205.19199,59.271975 1206.68,64.264 C1208.16801,69.256025 1209.58399,73.5279822 1210.928,77.08 C1212.27201,72.7599784 1213.66399,68.3200228 1215.104,63.76 C1216.54401,59.1999772 1217.6,54.520024 1218.272,49.72 C1218.656,45.0159765 1218.848,40.7440192 1218.848,36.904 C1218.848,33.0639808 1218.22401,28.8880226 1216.976,24.376 C1216.208,22.9359928 1215.416,21.5920062 1214.6,20.344 C1213.784,19.0959938 1212.65601,18.472 1211.216,18.472 C1210.06399,18.279999 1208.88801,18.5679962 1207.688,19.336 C1206.48799,20.1040038 1205.696,20.8239966 1205.312,21.496 L1205.312,21.496 Z M1352.624,68.728 C1353.96801,69.2080024 1354.784,70.143993 1355.072,71.536 C1355.36,72.928007 1355.264,74.4879914 1354.784,76.216 C1356.60801,74.5839918 1358.43199,73.0000077 1360.256,71.464 C1362.08001,69.9279923 1363.95199,68.4880067 1365.872,67.144 C1366.92801,66.4719966 1367.888,66.2079993 1368.752,66.352 C1369.616,66.4960007 1370.57599,67.2879928 1371.632,68.728 C1373.07201,70.4560086 1374.41599,72.4719885 1375.664,74.776 C1376.91201,77.0800115 1378.11199,79.527987 1379.264,82.12 C1380.41601,84.712013 1381.448,87.3519866 1382.36,90.04 C1383.272,92.7280134 1384.112,95.367987 1384.88,97.96 C1385.36,100.168011 1385.288,102.495988 1384.664,104.944 C1384.04,107.392012 1382.14402,109.959987 1378.976,112.648 C1378.208,113.032002 1377.392,113.439998 1376.528,113.872 C1375.664,114.304002 1374.824,114.568 1374.008,114.664 C1373.192,114.76 1372.448,114.568002 1371.776,114.088 C1371.104,113.607998 1370.576,112.648007 1370.192,111.208 C1368.84799,107.27198 1367.31201,103.024023 1365.584,98.464 C1363.85599,93.9039772 1361.64801,89.8480178 1358.96,86.296 C1357.23199,88.504011 1355.67201,90.5679904 1354.28,92.488 C1352.88799,94.4080096 1351.25601,96.3759899 1349.384,98.392 C1347.51199,100.40801 1345.28001,102.519989 1342.688,104.728 C1340.09599,106.936011 1336.73602,109.431986 1332.608,112.216 C1330.01599,113.656007 1327.30401,115.023994 1324.472,116.32 C1321.63999,117.616006 1318.76001,118.647996 1315.832,119.416 C1312.90399,120.184004 1309.97601,120.544 1307.048,120.496 C1304.11999,120.448 1301.21601,119.800006 1298.336,118.552 C1293.63198,116.151988 1290.75201,112.96002 1289.696,108.976 C1288.63999,104.99198 1288.75999,100.840022 1290.056,96.52 C1291.35201,92.1999784 1293.46399,87.9760206 1296.392,83.848 C1299.32001,79.7199794 1302.46398,76.360013 1305.824,73.768 C1312.73603,68.2959726 1320.22396,65.1760038 1328.288,64.408 C1336.35204,63.6399962 1344.46396,65.0799818 1352.624,68.728 L1352.624,68.728 Z M1321.808,99.4 C1325.55202,98.1519938 1329.05598,96.4960103 1332.32,94.432 C1335.58402,92.3679897 1338.75198,90.0880125 1341.824,87.592 C1338.94399,86.4399942 1335.89602,85.4080046 1332.68,84.496 C1329.46398,83.5839954 1326.27202,83.0560007 1323.104,82.912 C1319.93598,82.7679993 1316.86401,83.1519954 1313.888,84.064 C1310.91199,84.9760046 1308.17601,86.6799875 1305.68,89.176 C1303.47199,91.768013 1302.728,93.8799918 1303.448,95.512 C1304.168,97.1440082 1305.58399,98.3919957 1307.696,99.256 C1309.80801,100.120004 1312.23199,100.552 1314.968,100.552 C1317.70401,100.552 1319.98399,100.168004 1321.808,99.4 L1321.808,99.4 Z M1395.68,87.736 C1396.064,85.527989 1396.83199,83.1520127 1397.984,80.608 C1399.13601,78.0639873 1400.81599,76.0240077 1403.024,74.488 C1405.23201,73.0479928 1406.98399,72.6879964 1408.28,73.408 C1409.57601,74.1280036 1410.224,75.9759851 1410.224,78.952 C1410.224,81.160011 1410.104,83.9439832 1409.864,87.304 C1409.624,90.6640168 1409.6,93.7359861 1409.792,96.52 C1409.792,97.9600072 1410.128,98.9439974 1410.8,99.472 C1411.472,100.000003 1412.95999,99.4960077 1415.264,97.96 C1418.24001,95.9439899 1421.64798,93.5680137 1425.488,90.832 C1429.32802,88.0959863 1433.07198,85.624011 1436.72,83.416 C1438.54401,82.2639942 1440.75199,81.0400065 1443.344,79.744 C1445.93601,78.4479935 1448.64799,77.4400036 1451.48,76.72 C1454.31201,75.9999964 1457.11999,75.735999 1459.904,75.928 C1462.68801,76.120001 1465.18399,77.1279909 1467.392,78.952 C1469.60001,80.7760091 1471.35199,82.9119878 1472.648,85.36 C1473.94401,87.8080122 1474.904,90.3999863 1475.528,93.136 C1476.152,95.8720137 1476.488,98.6559858 1476.536,101.488 C1476.584,104.320014 1476.512,107.079987 1476.32,109.768 C1476.128,111.976011 1475.648,114.351987 1474.88,116.896 C1474.112,119.440013 1472.62401,121.431993 1470.416,122.872 C1469.456,123.544003 1468.44801,124.047998 1467.392,124.384 C1466.33599,124.720002 1465.376,124.816001 1464.512,124.672 C1463.648,124.527999 1462.952,124.168003 1462.424,123.592 C1461.896,123.015997 1461.632,122.152006 1461.632,121 C1461.728,119.175991 1461.728,116.872014 1461.632,114.088 C1461.536,111.303986 1461.128,108.616013 1460.408,106.024 C1459.688,103.431987 1458.51201,101.200009 1456.88,99.328 C1455.24799,97.4559906 1452.89602,96.52 1449.824,96.52 C1447.23199,96.52 1444.83201,96.7839974 1442.624,97.312 C1440.41599,97.8400026 1438.23201,98.6559945 1436.072,99.76 C1433.91199,100.864006 1431.70401,102.231992 1429.448,103.864 C1427.19199,105.496008 1424.72001,107.463988 1422.032,109.768 C1420.87999,110.824005 1419.44001,111.999994 1417.712,113.296 C1415.98399,114.592006 1414.16001,115.719995 1412.24,116.68 C1410.31999,117.640005 1408.40001,118.215999 1406.48,118.408 C1404.55999,118.600001 1402.88001,118.168005 1401.44,117.112 C1399.23199,115.671993 1397.62401,113.680013 1396.616,111.136 C1395.60799,108.591987 1394.984,105.928014 1394.744,103.144 C1394.504,100.359986 1394.528,97.5760139 1394.816,94.792 C1395.104,92.0079861 1395.392,89.6560096 1395.68,87.736 L1395.68,87.736 Z M1554.656,69.448 C1555.80801,70.2160038 1556,71.3919921 1555.232,72.976 C1554.464,74.5600079 1553.24001,76.047993 1551.56,77.44 C1549.87999,78.832007 1548.03201,79.9359959 1546.016,80.752 C1543.99999,81.5680041 1542.32001,81.5920038 1540.976,80.824 C1539.82399,79.9599957 1538.24001,78.9040062 1536.224,77.656 C1534.20799,76.4079938 1532.21601,75.2320055 1530.248,74.128 C1528.27999,73.0239945 1526.52801,72.1120036 1524.992,71.392 C1523.45599,70.6719964 1522.592,70.4559986 1522.4,70.744 C1522.208,71.1280019 1522.61599,71.8959942 1523.624,73.048 C1524.63201,74.2000058 1525.99999,75.5919918 1527.728,77.224 C1529.45601,78.8560082 1531.44799,80.6319904 1533.704,82.552 C1535.96001,84.4720096 1538.26399,86.3919904 1540.616,88.312 C1542.96801,90.2320096 1545.27199,92.0559914 1547.528,93.784 C1549.78401,95.5120086 1551.77599,96.9999938 1553.504,98.248 C1554.94401,99.3040053 1555.736,100.575993 1555.88,102.064 C1556.024,103.552007 1555.76,105.111992 1555.088,106.744 C1554.416,108.376008 1553.43201,109.983992 1552.136,111.568 C1550.83999,113.152008 1549.42401,114.615993 1547.888,115.96 C1545.67999,117.88001 1543.30401,119.439994 1540.76,120.64 C1538.21599,121.840006 1535.52801,122.847996 1532.696,123.664 C1529.86399,124.480004 1526.96001,125.103998 1523.984,125.536 C1521.00799,125.968002 1517.98402,126.375998 1514.912,126.76 C1512.51199,126.76 1509.96801,126.736 1507.28,126.688 C1504.59199,126.64 1501.88001,126.448002 1499.144,126.112 C1496.40799,125.775998 1493.67201,125.224004 1490.936,124.456 C1488.19999,123.687996 1485.63201,122.632007 1483.232,121.288 C1481.50399,120.231995 1480.616,118.408013 1480.568,115.816 C1480.52,113.223987 1480.976,110.656013 1481.936,108.112 C1482.896,105.567987 1484.23999,103.528008 1485.968,101.992 C1487.69601,100.455992 1489.47199,100.215995 1491.296,101.272 C1495.90402,104.056014 1500.70398,106.071994 1505.696,107.32 C1510.68802,108.568006 1515.17598,109.311999 1519.16,109.552 C1523.14402,109.792001 1526.23999,109.672002 1528.448,109.192 C1530.65601,108.711998 1531.328,108.088004 1530.464,107.32 C1527.29598,105.687992 1524.10402,103.792011 1520.888,101.632 C1517.67198,99.4719892 1514.84001,96.9520144 1512.392,94.072 C1509.94399,91.1919856 1508.04801,87.9760178 1506.704,84.424 C1505.35999,80.8719822 1504.976,76.9360216 1505.552,72.616 C1505.936,70.215988 1506.82399,67.8640115 1508.216,65.56 C1509.60801,63.2559885 1511.31199,61.2640084 1513.328,59.584 C1515.34401,57.9039916 1517.57599,56.6800038 1520.024,55.912 C1522.47201,55.1439962 1524.89599,55.0959966 1527.296,55.768 C1529.31201,56.1520019 1531.56799,56.7999954 1534.064,57.712 C1536.56001,58.6240046 1539.03199,59.7279935 1541.48,61.024 C1543.92801,62.3200065 1546.30399,63.6879928 1548.608,65.128 C1550.91201,66.5680072 1552.92799,68.0079928 1554.656,69.448 L1554.656,69.448 Z M1560.848,94.216 C1559.59999,93.4479962 1558.856,92.3440072 1558.616,90.904 C1558.376,89.4639928 1558.472,87.9280082 1558.904,86.296 C1559.336,84.6639918 1560.032,83.0320082 1560.992,81.4 C1561.952,79.7679918 1563.00799,78.352006 1564.16,77.152 C1565.31201,75.951994 1566.51199,75.1360022 1567.76,74.704 C1569.00801,74.2719978 1570.112,74.4399962 1571.072,75.208 C1571.648,75.5920019 1572.272,75.9279986 1572.944,76.216 C1573.616,76.5040014 1574.288,76.8399981 1574.96,77.224 C1575.728,76.0719942 1576.52,74.9440055 1577.336,73.84 C1578.152,72.7359945 1578.992,71.7040048 1579.856,70.744 C1581.48801,68.7279899 1583.21599,66.8080091 1585.04,64.984 C1586.86401,63.1599909 1588.87999,61.5040074 1591.088,60.016 C1593.29601,58.5279926 1595.76799,57.2560053 1598.504,56.2 C1601.24001,55.1439947 1604.33598,54.3280029 1607.792,53.752 C1612.20802,53.2719976 1615.92798,53.3919964 1618.952,54.112 C1621.97602,54.8320036 1624.11199,55.9599923 1625.36,57.496 C1627.28001,59.704011 1628.12,62.4639834 1627.88,65.776 C1627.64,69.0880166 1626.80001,72.2319851 1625.36,75.208 C1623.24799,79.6240221 1620.39202,83.4159842 1616.792,86.584 C1613.19198,89.7520158 1609.28002,92.3439899 1605.056,94.36 C1600.83198,96.3760101 1596.51202,97.8639952 1592.096,98.824 C1587.67998,99.7840048 1583.60002,100.312 1579.856,100.408 C1581.39201,103.384015 1583.52799,105.591993 1586.264,107.032 C1589.00001,108.472007 1592.02398,109.311999 1595.336,109.552 C1598.64802,109.792001 1602.17598,109.528004 1605.92,108.76 C1609.66402,107.991996 1613.35998,106.912007 1617.008,105.52 C1620.65602,104.127993 1624.13598,102.520009 1627.448,100.696 C1630.76002,98.8719909 1633.66399,97.0000096 1636.16,95.08 C1638.08001,93.6399928 1639.54399,92.9679995 1640.552,93.064 C1641.56001,93.1600005 1642.112,94.311989 1642.208,96.52 C1642.304,98.728011 1641.36801,101.319985 1639.4,104.296 C1637.43199,107.272015 1634.72002,110.199986 1631.264,113.08 C1627.61598,115.864014 1623.56002,118.311989 1619.096,120.424 C1614.63198,122.536011 1610.04802,124.119995 1605.344,125.176 C1600.63998,126.232005 1595.98402,126.664001 1591.376,126.472 C1586.76798,126.279999 1582.44802,125.272009 1578.416,123.448 C1573.23197,120.567986 1569.84801,116.800023 1568.264,112.144 C1566.67999,107.487977 1566.272,102.616025 1567.04,97.528 C1565.98399,97.0479976 1564.95201,96.5440026 1563.944,96.016 C1562.93599,95.4879974 1561.90401,94.8880034 1560.848,94.216 L1560.848,94.216 Z M1613.696,77.08 C1613.984,76.0239947 1613.672,75.2320026 1612.76,74.704 C1611.848,74.1759974 1610.52801,73.8880002 1608.8,73.84 C1607.07199,73.7919998 1605.08001,73.9839978 1602.824,74.416 C1600.56799,74.8480022 1598.33601,75.3999966 1596.128,76.072 C1593.91999,76.7440034 1591.78401,77.583995 1589.72,78.592 C1587.65599,79.600005 1586.00001,80.6319947 1584.752,81.688 C1587.82402,82.7440053 1591.01598,83.5119976 1594.328,83.992 C1597.64002,84.4720024 1601.11998,84.2320048 1604.768,83.272 C1607.16801,82.5039962 1609.08799,81.6400048 1610.528,80.68 C1611.96801,79.7199952 1613.024,78.5200072 1613.696,77.08 L1613.696,77.08 Z M1638.608,87.736 C1638.992,85.527989 1639.75999,83.1520127 1640.912,80.608 C1642.06401,78.0639873 1643.74399,76.0240077 1645.952,74.488 C1648.16001,73.0479928 1649.91199,72.6879964 1651.208,73.408 C1652.50401,74.1280036 1653.152,75.9759851 1653.152,78.952 C1653.152,81.160011 1653.032,83.9439832 1652.792,87.304 C1652.552,90.6640168 1652.528,93.7359861 1652.72,96.52 C1652.72,97.9600072 1653.056,98.9439974 1653.728,99.472 C1654.4,100.000003 1655.88799,99.4960077 1658.192,97.96 C1661.16801,95.9439899 1664.57598,93.5680137 1668.416,90.832 C1672.25602,88.0959863 1675.99998,85.624011 1679.648,83.416 C1681.47201,82.2639942 1683.67999,81.0400065 1686.272,79.744 C1688.86401,78.4479935 1691.57599,77.4400036 1694.408,76.72 C1697.24001,75.9999964 1700.04799,75.735999 1702.832,75.928 C1705.61601,76.120001 1708.11199,77.1279909 1710.32,78.952 C1712.52801,80.7760091 1714.27999,82.9119878 1715.576,85.36 C1716.87201,87.8080122 1717.832,90.3999863 1718.456,93.136 C1719.08,95.8720137 1719.416,98.6559858 1719.464,101.488 C1719.512,104.320014 1719.44,107.079987 1719.248,109.768 C1719.056,111.976011 1718.576,114.351987 1717.808,116.896 C1717.04,119.440013 1715.55201,121.431993 1713.344,122.872 C1712.384,123.544003 1711.37601,124.047998 1710.32,124.384 C1709.26399,124.720002 1708.304,124.816001 1707.44,124.672 C1706.576,124.527999 1705.88,124.168003 1705.352,123.592 C1704.824,123.015997 1704.56,122.152006 1704.56,121 C1704.656,119.175991 1704.656,116.872014 1704.56,114.088 C1704.464,111.303986 1704.056,108.616013 1703.336,106.024 C1702.616,103.431987 1701.44001,101.200009 1699.808,99.328 C1698.17599,97.4559906 1695.82402,96.52 1692.752,96.52 C1690.15999,96.52 1687.76001,96.7839974 1685.552,97.312 C1683.34399,97.8400026 1681.16001,98.6559945 1679,99.76 C1676.83999,100.864006 1674.63201,102.231992 1672.376,103.864 C1670.11999,105.496008 1667.64801,107.463988 1664.96,109.768 C1663.80799,110.824005 1662.36801,111.999994 1660.64,113.296 C1658.91199,114.592006 1657.08801,115.719995 1655.168,116.68 C1653.24799,117.640005 1651.32801,118.215999 1649.408,118.408 C1647.48799,118.600001 1645.80801,118.168005 1644.368,117.112 C1642.15999,115.671993 1640.55201,113.680013 1639.544,111.136 C1638.53599,108.591987 1637.912,105.928014 1637.672,103.144 C1637.432,100.359986 1637.456,97.5760139 1637.744,94.792 C1638.032,92.0079861 1638.32,89.6560096 1638.608,87.736 L1638.608,87.736 Z" id="Christoffer-Johansen" fill="#4A4A4A" sketch:type="MSShapeGroup"></path>
    </g>
</svg>