<?xml version="1.0" encoding="UTF-8" standalone="no"?>
<svg width="117px" height="116px" viewBox="0 0 117 116" version="1.1" xmlns="http://www.w3.org/2000/svg" xmlns:xlink="http://www.w3.org/1999/xlink" xmlns:sketch="http://www.bohemiancoding.com/sketch/ns">
    <!-- Generator: Sketch 3.2.2 (9983) - http://www.bohemiancoding.com/sketch -->
    <title>cj</title>
    <desc>Created with Sketch.</desc>
    <defs></defs>
    <g id="Page-1" stroke="none" stroke-width="1" fill="none" fill-rule="evenodd" sketch:type="MSPage">
        <path d="M49.488,1.088 C42.144,0.944 34.8,3.104 28.464,6.56 C22.272,10.16 17.088,14.912 12.912,20.672 C4.704,31.76 0.96,45.152 0.96,58.4 C0.96,71.648 4.704,84.896 12.912,96.272 C16.944,101.888 22.272,106.64 28.464,110.24 C34.8,113.696 42.144,115.856 49.488,115.856 L49.488,110.672 C43.008,110.672 36.672,108.944 31.056,105.632 C25.44,102.608 20.976,98.144 17.088,93.104 C9.6,82.88 6.144,70.64 6.144,58.4 C6.144,46.16 9.6,33.92 17.088,23.696 C20.976,18.656 25.44,14.48 31.056,11.168 C36.672,7.856 43.008,6.128 49.488,6.272 L49.488,1.088 Z M49.488,14.048 C44.448,13.904 39.408,15.2 34.8,17.936 C30.48,20.384 26.592,23.84 23.28,28.304 C17.088,36.944 13.92,47.456 13.92,58.4 C13.92,69.344 17.088,79.856 23.28,88.496 C26.592,92.96 30.48,96.416 34.8,98.864 C39.552,101.6 44.448,102.896 49.488,102.896 L49.488,97.712 C45.312,97.712 41.28,96.56 37.392,94.4 C33.504,92.096 30.192,89.072 27.456,85.472 C21.84,77.984 19.104,68.192 19.104,58.4 C19.104,48.608 21.84,38.816 27.456,31.328 C30.192,27.728 33.504,24.704 37.392,22.4 C40.992,20.24 45.024,19.232 49.488,19.232 L49.488,14.048 Z M60.432,88.64 L60.432,89.648 C60.432,98.864 66.192,107.072 74.112,112.112 C78.576,114.848 83.616,116.144 88.944,116 C94.272,115.856 99.168,114.272 103.632,111.392 C112.704,105.632 115.728,96.416 116.16,85.616 L116.16,0.944 L110.976,0.944 L110.976,85.616 C110.976,94.256 108.384,101.744 100.896,107.072 C93.84,111.824 84.048,112.112 76.704,107.648 C70.512,104.192 65.616,96.848 65.616,89.36 L65.616,67.472 L60.432,67.472 L60.432,88.64 Z M73.392,88.928 C73.392,93.68 76.272,98.288 80.736,101.024 C85.488,103.904 91.968,103.904 96.576,100.592 C100.752,97.712 103.056,93.536 103.2,88.208 L103.2,85.616 L103.2,0.944 L98.016,0.944 L98.016,85.616 L98.016,88.208 C98.016,91.52 96.432,94.4 93.696,96.272 C90.672,98.432 86.352,98.432 83.328,96.56 C80.592,94.976 78.576,91.952 78.576,88.64 L78.576,87.92 L78.576,67.472 L73.392,67.472 L73.392,88.928 Z" id="cj" fill="#4A4A4A" sketch:type="MSShapeGroup"></path>
    </g>
</svg>