<?xml version="1.0" encoding="UTF-8" standalone="no"?>
<svg width="300px" height="165px" viewBox="0 0 300 165" version="1.1" xmlns="http://www.w3.org/2000/svg" xmlns:xlink="http://www.w3.org/1999/xlink" xmlns:sketch="http://www.bohemiancoding.com/sketch/ns">
    <!-- Generator: Sketch 3.2.2 (9983) - http://www.bohemiancoding.com/sketch -->
    <title>computer_svg</title>
    <desc>Created with Sketch.</desc>
    <defs></defs>
    <g id="Page-1" stroke="none" stroke-width="1" fill="none" fill-rule="evenodd" sketch:type="MSPage">
        <g id="computer_svg" sketch:type="MSLayerGroup" transform="translate(0.000000, 1.000000)">
            <g id="Page-1" sketch:type="MSShapeGroup">
                <g id="computer_svg">
                    <g id="Page-1">
                        <g id="Group">
                            <path d="M41.0942392,0.43692282 C40.8697061,0.43692282 31,0.43692282 31,10.0222497 L31,153.540664 L197.745065,153.540664 L197.745065,144.920326 L41.094239,144.920326 L41.094239,11.2894945 L255.749421,11.2894945 L255.749421,144.37504 L265.281507,153.838322 L265.281509,11.2894944 C265.281509,11.2894944 265.281509,0.43692282 255.74942,0.43692282 L197.745062,0.43692282 L41.0942392,0.43692282 C40.8697061,0.43692282 41.0942392,0.43692282 41.0942392,0.43692282 Z" id="Path-9" stroke="#000000" fill="#000000"></path>
                            <path d="M31.7405627,153.218209 L0.811880543,153.218209 L0.811880543,158.356451 C0.811880543,158.356451 2.03015912,163.891207 6.65918712,163.891207 C11.2882151,163.891206 166.182314,163.891207 166.182314,163.891207 L166.476822,153.645073" id="Path-11" fill="#D8D8D8"></path>
                            <path d="M164.550172,153.218209 C154.071526,152.541918 133.62149,153.218209 133.62149,153.218209 L133.62149,158.356451 C133.62149,158.356451 134.839768,163.891207 139.468796,163.891207 C144.097824,163.891206 298.991923,163.891207 298.991923,163.891207 L299.182314,154.195135" id="Path-12" fill="#D8D8D8" transform="translate(216.401902, 158.404421) scale(-1, 1) translate(-216.401902, -158.404421) "></path>
                            <path d="M120.250139,153.683668 L126.265207,158.357301 L173.837897,158.357301 L179.288411,153.540213" id="Path-15" stroke="#979797" fill="#939393"></path>
                            <path d="M198.175081,153.696198 L265.020663,153.696198 L265.020663,152.815527 C265.020663,152.815527 265.60612,152.50509 265.523287,152.417901 C262.588504,149.328795 256.470439,144.167314 256.470439,144.167314 L198.175081,144.167314" id="Path-7" fill="#000000"></path>
                        </g>
                    </g>
                </g>
            </g>
        </g>
    </g>
</svg>