<?xml version="1.0" encoding="UTF-8" standalone="no"?>
<svg width="141px" height="177px" viewBox="0 0 141 177" version="1.1" xmlns="http://www.w3.org/2000/svg" xmlns:xlink="http://www.w3.org/1999/xlink" xmlns:sketch="http://www.bohemiancoding.com/sketch/ns">
    <!-- Generator: Sketch 3.2.2 (9983) - http://www.bohemiancoding.com/sketch -->
    <title>J</title>
    <desc>Created with Sketch.</desc>
    <defs></defs>
    <g id="Page-1" stroke="none" stroke-width="1" fill="none" fill-rule="evenodd" sketch:type="MSPage">
        <path d="M6.576,43.52 C5.1359928,44.5760053 3.76800648,45.104 2.472,45.104 C1.17599352,45.104 0.528,44.5760053 0.528,43.52 C0.23999856,42.3679942 0.26399832,41.1440065 0.6,39.848 C0.93600168,38.5519935 1.41599688,37.304006 2.04,36.104 C2.66400312,34.903994 3.40799568,33.7520055 4.272,32.648 C5.13600432,31.5439945 5.99999568,30.5600043 6.864,29.696 C9.84001488,26.7199851 12.8399849,23.6960154 15.864,20.624 C18.8880151,17.5519846 22.0559834,14.6960132 25.368,12.056 C28.6800166,9.4159868 32.2079813,7.06401032 35.952,5 C39.6960187,2.93598968 43.7759779,1.47200432 48.192,0.608 C51.1680149,0.03199712 54.0479861,-0.08800168 56.832,0.248 C59.6160139,0.58400168 62.303987,1.25599496 64.896,2.264 C67.488013,3.27200504 69.9359885,4.54399232 72.24,6.08 C74.5440115,7.61600768 76.6559904,9.24799136 78.576,10.976 C85.6800355,17.6000331 91.9919724,24.9199599 97.512,32.936 C103.032028,40.9520401 107.80798,49.3759558 111.84,58.208 C116.256022,57.7279976 120.575979,57.3680012 124.8,57.128 C129.024021,56.8879988 133.247979,56.6240014 137.472,56.336 C138.624006,56.2399995 139.463997,56.4079978 139.992,56.84 C140.520003,57.2720022 140.832,57.8479964 140.928,58.568 C141.024,59.2880036 140.952001,60.0799957 140.712,60.944 C140.471999,61.8080043 140.208001,62.6239962 139.92,63.392 C139.439998,65.1200086 138.432008,66.8719911 136.896,68.648 C135.359992,70.4240089 133.680009,71.312 131.856,71.312 C129.551988,71.6000014 127.224012,71.8879986 124.872,72.176 C122.519988,72.4640014 120.144012,72.703999 117.744,72.896 C119.66401,78.5600283 121.295993,84.295971 122.64,90.104 C123.984007,95.912029 124.871998,101.695971 125.304,107.456 C125.736002,113.216029 125.664003,118.927972 125.088,124.592 C124.511997,130.256028 123.26401,135.727974 121.344,141.008 C119.32799,146.576028 116.880014,151.687977 114,156.344 C111.119986,161.000023 107.66402,164.911984 103.632,168.08 C99.5999798,171.248016 94.9440264,173.527993 89.664,174.92 C84.3839736,176.312007 78.3360341,176.576004 71.52,175.712 C66.2399736,174.847996 60.9360266,173.480009 55.608,171.608 C50.2799734,169.735991 45.2400238,167.360014 40.488,164.48 C35.7359762,161.599986 31.4160194,158.19202 27.528,154.256 C23.6399806,150.31998 20.496012,145.904024 18.096,141.008 C16.0799899,136.111976 14.8560022,131.096026 14.424,125.96 C13.9919978,120.823974 14.279995,115.832024 15.288,110.984 C16.296005,106.135976 17.999988,101.528022 20.4,97.16 C22.800012,92.7919782 25.8239818,88.8800173 29.472,85.424 C33.3120192,81.8719822 37.3919784,78.8240127 41.712,76.28 C46.0320216,73.7359873 50.495977,71.5520091 55.104,69.728 C59.712023,67.9039909 64.3919762,66.392006 69.144,65.192 C73.8960238,63.991994 78.575977,62.9600043 83.184,62.096 C85.2960106,61.7119981 87.3839897,61.3520017 89.448,61.016 C91.5120103,60.6799983 93.5999894,60.3680014 95.712,60.08 C91.8719808,52.4959621 87.4080254,45.3440336 82.32,38.624 C77.2319746,31.9039664 71.3760331,26.144024 64.752,21.344 C61.7759851,19.5199909 59.088012,18.104005 56.688,17.096 C54.287988,16.087995 52.0080108,15.4640012 49.848,15.224 C47.6879892,14.9839988 45.5520106,15.0799978 43.44,15.512 C41.3279894,15.9440022 39.072012,16.7359942 36.672,17.888 C30.9119712,21.5360182 25.6080242,25.5679779 20.76,29.984 C15.9119758,34.4000221 11.184023,38.911977 6.576,43.52 L6.576,43.52 Z M105.072,81.968 C104.591998,80.7199938 104.112002,79.4720062 103.632,78.224 C103.151998,76.9759938 102.672002,75.6800067 102.192,74.336 C92.2079501,75.3920053 82.3920482,76.9039902 72.744,78.872 C63.0959518,80.8400098 53.7600451,84.127977 44.736,88.736 C39.2639726,91.5200139 34.632019,95.1919772 30.84,99.752 C27.047981,104.312023 25.152,109.56797 25.152,115.52 C25.4400014,119.55202 26.4479914,123.439981 28.176,127.184 C29.9040086,130.928019 32.1119866,134.407984 34.8,137.624 C37.4880134,140.840016 40.5119832,143.719987 43.872,146.264 C47.2320168,148.808013 50.6399827,150.943991 54.096,152.672 C58.1280202,154.68801 62.8319731,156.295994 68.208,157.496 C73.5840269,158.696006 78.8879738,159.200001 84.12,159.008 C89.3520262,158.815999 94.1759779,157.784009 98.592,155.912 C103.008022,154.039991 106.319989,150.992021 108.528,146.768 C111.120013,142.159977 112.727997,137.048028 113.352,131.432 C113.976003,125.815972 113.976003,120.104029 113.352,114.296 C112.727997,108.487971 111.624008,102.800028 110.04,97.232 C108.455992,91.6639722 106.800009,86.576023 105.072,81.968 L105.072,81.968 Z" id="J" fill="#4A4A4A" sketch:type="MSShapeGroup"></path>
    </g>
</svg>