<?xml version="1.0" encoding="UTF-8" standalone="no"?>
<svg width="221px" height="222px" viewBox="0 0 221 222" version="1.1" xmlns="http://www.w3.org/2000/svg" xmlns:xlink="http://www.w3.org/1999/xlink" xmlns:sketch="http://www.bohemiancoding.com/sketch/ns">
    <!-- Generator: Sketch 3.2.2 (9983) - http://www.bohemiancoding.com/sketch -->
    <title>Path 5</title>
    <desc>Created with Sketch.</desc>
    <defs></defs>
    <g id="Page-1" stroke="none" stroke-width="1" fill="none" fill-rule="evenodd" sketch:type="MSPage">
        <g id="Oval-1-+-CJ" sketch:type="MSLayerGroup" transform="translate(-6.000000, -1.000000)" stroke="#D42929">
            <path d="M9.1640625,89.2792969 C9.1640625,89.2792969 26.09375,39.4707031 63.7441406,19.3222656 C64.7929688,19.7070313 10.2734375,77.3515625 7.3203125,121.927734 C8.26757812,120.197266 48.4179687,39.5410156 78.8144531,11.9648438 C79.1770606,12.3709098 24.0607159,107.461896 24.0607159,107.461896 C24.0607159,107.461896 10.0772063,134.550781 12.1152344,134.550781 L97.2578125,6.86328125 C97.2578125,6.86328125 32.7480469,128.103516 14.1210938,153.572266 C-4.50585937,179.041016 107.419922,27.0820313 116.994141,4.0859375 C126.568359,-18.9101562 20.8945313,170.068359 20.8945313,170.068359 L131.300781,4.08007813 L27.2324219,182.052734 L143.955078,9.6171875 L38.0019531,190.521484 L160.849609,13.4804688 L47.1445313,201.048828 L175.830078,19.9082031 L59.78125,211.449219 L189.029297,30.7089844 L72.4824219,217.908203 L200.046875,41.7304688 L88.7304688,220.355469 L207.646484,55.4101563 L101.994141,221.898438 L213.636719,69.8476563 L119.232422,222.203125 L221.667969,84.3535156 L136.753906,222.330078 L225.337891,102.585938 L158.443359,215.380859 L225.794922,126.361328 L178.898437,206.585938 C178.898437,206.585938 209.406244,185.068363 221.453125,154.693359" id="Path-5" sketch:type="MSShapeGroup"></path>
        </g>
    </g>
</svg>