<?xml version="1.0" encoding="UTF-8" standalone="no"?>
<svg width="221px" height="222px" viewBox="0 0 221 222" version="1.1" xmlns="http://www.w3.org/2000/svg" xmlns:xlink="http://www.w3.org/1999/xlink" xmlns:sketch="http://www.bohemiancoding.com/sketch/ns">
    <!-- Generator: Sketch 3.2.2 (9983) - http://www.bohemiancoding.com/sketch -->
    <title>Path 5 + CJ</title>
    <desc>Created with Sketch.</desc>
    <defs></defs>
    <g id="Page-1" stroke="none" stroke-width="1" fill="none" fill-rule="evenodd" sketch:type="MSPage">
        <g id="Oval-1-+-CJ" sketch:type="MSLayerGroup" transform="translate(-366.000000, 1.000000)">
            <g id="Path-5-+-CJ" transform="translate(367.000000, 0.000000)" sketch:type="MSShapeGroup">
                <path d="M2.1640625,87.2792969 C2.1640625,87.2792969 19.09375,37.4707031 56.7441406,17.3222656 C57.7929688,17.7070313 3.2734375,75.3515625 0.3203125,119.927734 C1.26757812,118.197266 41.4179687,37.5410156 71.8144531,9.96484375 C72.1770606,10.3709098 17.0607159,105.461896 17.0607159,105.461896 C17.0607159,105.461896 3.07720628,132.550781 5.11523438,132.550781 L90.2578125,4.86328125 C90.2578125,4.86328125 25.7480469,126.103516 7.12109375,151.572266 C-11.5058594,177.041016 100.419922,25.0820313 109.994141,2.0859375 C119.568359,-20.9101562 13.8945313,168.068359 13.8945313,168.068359 L124.300781,2.08007813 L20.2324219,180.052734 L136.955078,7.6171875 L31.0019531,188.521484 L153.849609,11.4804688 L40.1445313,199.048828 L168.830078,17.9082031 L52.78125,209.449219 L182.029297,28.7089844 L65.4824219,215.908203 L193.046875,39.7304688 L81.7304688,218.355469 L200.646484,53.4101563 L94.9941406,219.898438 L206.636719,67.8476563 L112.232422,220.203125 L214.667969,82.3535156 L129.753906,220.330078 L218.337891,100.585938 L151.443359,213.380859 L218.794922,124.361328 L171.898437,204.585938 C171.898437,204.585938 202.406244,183.068363 214.453125,152.693359" id="Path-5" stroke="#D42929"></path>
                <path d="M85.3,54.3 C86.233338,54.500001 86.7,55.166661 86.7,56.3 C86.7,57.433339 86.4166695,58.6499935 85.85,59.95 C85.2833305,61.2500065 84.5166715,62.4166615 83.55,63.45 C82.5833285,64.4833385 81.633338,65 80.7,65 C77.166649,65 73.833349,65.366663 70.7,66.1 C67.566651,66.833337 64.6166805,67.9833255 61.85,69.55 C59.0833195,71.1166745 56.4500125,73.1166545 53.95,75.55 C51.4499875,77.9833455 49.066678,80.933316 46.8,84.4 C44.866657,87.666683 43.3500055,90.7833185 42.25,93.75 C41.1499945,96.7166815 40.733332,99.766651 41,102.9 C41.400002,105.56668 42.3166595,107.683325 43.75,109.25 C45.1833405,110.816675 46.9833225,111.949996 49.15,112.65 C51.3166775,113.350003 53.766653,113.683334 56.5,113.65 C59.233347,113.616667 62.0833185,113.31667 65.05,112.75 C68.0166815,112.18333 70.9833185,111.450005 73.95,110.55 C76.9166815,109.649995 79.7166535,108.683339 82.35,107.65 C84.9833465,106.616661 87.3833225,105.600005 89.55,104.6 C91.7166775,103.599995 93.46666,102.700004 94.8,101.9 C96.533342,100.899995 97.8499955,100.449999 98.75,100.55 C99.6500045,100.650001 100.1,101.466659 100.1,103 C100.1,104.133339 99.5500055,105.349993 98.45,106.65 C97.3499945,107.950007 95.733344,109.199994 93.6,110.4 C91.333322,111.73334 88.600016,113.133326 85.4,114.6 C82.199984,116.066674 78.866684,117.46666 75.4,118.8 C71.933316,120.13334 68.4833505,121.316662 65.05,122.35 C61.6166495,123.383339 58.533347,124.099998 55.8,124.5 C54.46666,124.700001 53.066674,124.833333 51.6,124.9 C50.133326,124.966667 48.666674,124.933334 47.2,124.8 C45.733326,124.666666 44.3166735,124.400002 42.95,124 C41.5833265,123.599998 40.333339,123.033337 39.2,122.3 C36.933322,120.366657 35.266672,118.183346 34.2,115.75 C33.133328,113.316654 32.533334,110.750013 32.4,108.05 C32.266666,105.349986 32.5166635,102.600014 33.15,99.8 C33.7833365,96.999986 34.633328,94.2833465 35.7,91.65 C36.766672,89.0166535 37.96666,86.533345 39.3,84.2 C40.63334,81.866655 41.933327,79.800009 43.2,78 C49.266697,70.066627 55.7499655,64.066687 62.65,60 C69.5500345,55.933313 77.099959,54.033332 85.3,54.3 L85.3,54.3 Z M93.8,95.5 C92.799995,96.233337 91.8500045,96.6 90.95,96.6 C90.0499955,96.6 89.6,96.233337 89.6,95.5 C89.399999,94.699996 89.4166655,93.8500045 89.65,92.95 C89.8833345,92.0499955 90.2166645,91.1833375 90.65,90.35 C91.0833355,89.5166625 91.599997,88.7166705 92.2,87.95 C92.800003,87.1833295 93.399997,86.500003 94,85.9 C96.066677,83.833323 98.1499895,81.733344 100.25,79.6 C102.35001,77.466656 104.549989,75.4833425 106.85,73.65 C109.150012,71.8166575 111.599987,70.1833405 114.2,68.75 C116.800013,67.3166595 119.633318,66.300003 122.7,65.7 C124.766677,65.299998 126.766657,65.2166655 128.7,65.45 C130.633343,65.6833345 132.499991,66.1499965 134.3,66.85 C136.100009,67.5500035 137.799992,68.433328 139.4,69.5 C141.000008,70.566672 142.46666,71.699994 143.8,72.9 C148.733358,77.500023 153.116648,82.5833055 156.95,88.15 C160.783353,93.7166945 164.099986,99.566636 166.9,105.7 C169.966682,105.366665 172.966652,105.116668 175.9,104.95 C178.833348,104.783333 181.766652,104.600001 184.7,104.4 C185.500004,104.333333 186.083332,104.449998 186.45,104.75 C186.816669,105.050002 187.033333,105.449997 187.1,105.95 C187.166667,106.450003 187.116668,106.999997 186.95,107.6 C186.783333,108.200003 186.600001,108.766664 186.4,109.3 C186.066665,110.500006 185.366672,111.716661 184.3,112.95 C183.233328,114.18334 182.066673,114.8 180.8,114.8 C179.199992,115.000001 177.583342,115.199999 175.95,115.4 C174.316659,115.600001 172.666675,115.766666 171,115.9 C172.33334,119.833353 173.466662,123.816646 174.4,127.85 C175.333338,131.883353 175.949999,135.89998 176.25,139.9 C176.550002,143.90002 176.500002,147.866647 176.1,151.8 C175.699998,155.733353 174.83334,159.533315 173.5,163.2 C172.099993,167.066686 170.40001,170.61665 168.4,173.85 C166.39999,177.083349 164.000014,179.799989 161.2,182 C158.399986,184.200011 155.166685,185.783329 151.5,186.75 C147.833315,187.716672 143.633357,187.900003 138.9,187.3 C135.233315,186.699997 131.550018,185.750007 127.85,184.45 C124.149982,183.149993 120.650016,181.50001 117.35,179.5 C114.049983,177.49999 111.050014,175.133347 108.35,172.4 C105.649987,169.666653 103.466675,166.600017 101.8,163.2 C100.399993,159.799983 99.5500015,156.316685 99.25,152.75 C98.9499985,149.183315 99.1499965,145.716683 99.85,142.35 C100.550004,138.983317 101.733325,135.783348 103.4,132.75 C105.066675,129.716652 107.166654,127.000012 109.7,124.6 C112.36668,122.133321 115.199985,120.016675 118.2,118.25 C121.200015,116.483325 124.299984,114.966673 127.5,113.7 C130.700016,112.433327 133.949984,111.383337 137.25,110.55 C140.550017,109.716662 143.799984,109.000003 147,108.4 C148.466674,108.133332 149.91666,107.883335 151.35,107.65 C152.783341,107.416665 154.233326,107.200001 155.7,107 C153.03332,101.733307 149.933351,96.76669 146.4,92.1 C142.866649,87.43331 138.800023,83.43335 134.2,80.1 C132.133323,78.833327 130.266675,77.8500035 128.6,77.15 C126.933325,76.4499965 125.350008,76.0166675 123.85,75.85 C122.349993,75.6833325 120.866674,75.7499985 119.4,76.05 C117.933326,76.3500015 116.366675,76.899996 114.7,77.7 C110.69998,80.233346 107.016683,83.033318 103.65,86.1 C100.283317,89.166682 97.000016,92.299984 93.8,95.5 L93.8,95.5 Z M162.2,122.2 C161.866665,121.333329 161.533335,120.466671 161.2,119.6 C160.866665,118.733329 160.533335,117.833338 160.2,116.9 C153.266632,117.633337 146.450034,118.683326 139.75,120.05 C133.049967,121.416673 126.566698,123.699984 120.3,126.9 C116.499981,128.833343 113.283347,131.383317 110.65,134.55 C108.016654,137.716682 106.7,141.366646 106.7,145.5 C106.900001,148.300014 107.599994,150.999987 108.8,153.6 C110.000006,156.200013 111.533324,158.616655 113.4,160.85 C115.266676,163.083344 117.366655,165.083324 119.7,166.85 C122.033345,168.616675 124.399988,170.099994 126.8,171.3 C129.600014,172.700007 132.866648,173.816662 136.6,174.65 C140.333352,175.483337 144.016649,175.833334 147.65,175.7 C151.283352,175.566666 154.633318,174.850006 157.7,173.55 C160.766682,172.249993 163.066659,170.133348 164.6,167.2 C166.400009,163.999984 167.516665,160.450019 167.95,156.55 C168.383336,152.64998 168.383336,148.683353 167.95,144.65 C167.516665,140.616646 166.750006,136.666686 165.65,132.8 C164.549995,128.933314 163.400006,125.400016 162.2,122.2 L162.2,122.2 Z" id="CJ" stroke="#FFFFFF" fill="#FFFFFF"></path>
            </g>
        </g>
    </g>
</svg>