<?xml version="1.0" encoding="UTF-8" standalone="no"?>
<svg width="227px" height="247px" viewBox="0 0 227 247" version="1.1" xmlns="http://www.w3.org/2000/svg" xmlns:xlink="http://www.w3.org/1999/xlink" xmlns:sketch="http://www.bohemiancoding.com/sketch/ns">
    <!-- Generator: Sketch 3.2.2 (9983) - http://www.bohemiancoding.com/sketch -->
    <title>Path 5</title>
    <desc>Created with Sketch.</desc>
    <defs>
        <filter x="-50%" y="-50%" width="200%" height="200%" filterUnits="objectBoundingBox" id="filter-1">
            <feOffset dx="0" dy="2" in="SourceAlpha" result="shadowOffsetOuter1"></feOffset>
            <feGaussianBlur stdDeviation="2" in="shadowOffsetOuter1" result="shadowBlurOuter1"></feGaussianBlur>
            <feColorMatrix values="0 0 0 0 0   0 0 0 0 0   0 0 0 0 0  0 0 0 0.35 0" in="shadowBlurOuter1" type="matrix" result="shadowMatrixOuter1"></feColorMatrix>
            <feOffset dx="0" dy="2" in="SourceAlpha" result="shadowOffsetOuter2"></feOffset>
            <feGaussianBlur stdDeviation="2" in="shadowOffsetOuter2" result="shadowBlurOuter2"></feGaussianBlur>
            <feColorMatrix values="0 0 0 0 0   0 0 0 0 0   0 0 0 0 0  0 0 0 0.35 0" in="shadowBlurOuter2" type="matrix" result="shadowMatrixOuter2"></feColorMatrix>
            <feOffset dx="0" dy="1" in="SourceAlpha" result="shadowOffsetInner1"></feOffset>
            <feGaussianBlur stdDeviation="1.5" in="shadowOffsetInner1" result="shadowBlurInner1"></feGaussianBlur>
            <feComposite in="shadowBlurInner1" in2="SourceAlpha" operator="arithmetic" k2="-1" k3="1" result="shadowInnerInner1"></feComposite>
            <feColorMatrix values="0 0 0 0 0   0 0 0 0 0   0 0 0 0 0  0 0 0 0.35 0" in="shadowInnerInner1" type="matrix" result="shadowMatrixInner1"></feColorMatrix>
            <feMerge>
                <feMergeNode in="shadowMatrixOuter1"></feMergeNode>
                <feMergeNode in="shadowMatrixOuter2"></feMergeNode>
                <feMergeNode in="SourceGraphic"></feMergeNode>
                <feMergeNode in="shadowMatrixInner1"></feMergeNode>
            </feMerge>
            <feGaussianBlur stdDeviation="-0.556005047 4.43912051" in="SourceGraphic" result="blur"></feGaussianBlur>
        </filter>
    </defs>
    <g id="Page-1" stroke="none" stroke-width="1" fill="none" fill-rule="evenodd" sketch:type="MSPage">
        <g id="Oval-1-+-CJ" sketch:type="MSLayerGroup" transform="translate(-362.000000, 11.000000)" stroke="#474040" filter="url(#filter-1)">
            <path d="M369.164062,89.2792969 C369.164062,89.2792969 386.09375,39.4707031 423.744141,19.3222656 C424.792969,19.7070313 370.273438,77.3515625 367.320312,121.927734 C368.267578,120.197266 408.417969,39.5410156 438.814453,11.9648438 C439.177061,12.3709098 384.060716,107.461896 384.060716,107.461896 C384.060716,107.461896 370.077206,134.550781 372.115234,134.550781 L457.257813,6.86328125 C457.257813,6.86328125 392.748047,128.103516 374.121094,153.572266 C355.494141,179.041016 467.419922,27.0820313 476.994141,4.0859375 C486.568359,-18.9101562 380.894531,170.068359 380.894531,170.068359 L491.300781,4.08007813 L387.232422,182.052734 L503.955078,9.6171875 L398.001953,190.521484 L520.849609,13.4804688 L407.144531,201.048828 L535.830078,19.9082031 L419.78125,211.449219 L549.029297,30.7089844 L432.482422,217.908203 L560.046875,41.7304688 L448.730469,220.355469 L567.646484,55.4101563 L461.994141,221.898438 L573.636719,69.8476563 L479.232422,222.203125 L581.667969,84.3535156 L496.753906,222.330078 L585.337891,102.585938 L518.443359,215.380859 L585.794922,126.361328 L538.898438,206.585938 C538.898438,206.585938 569.406244,185.068363 581.453125,154.693359" id="Path-5" sketch:type="MSShapeGroup"></path>
        </g>
    </g>
</svg>