<?xml version="1.0" encoding="UTF-8" standalone="no"?>
<svg width="221px" height="222px" viewBox="0 0 221 222" version="1.1" xmlns="http://www.w3.org/2000/svg" xmlns:xlink="http://www.w3.org/1999/xlink" xmlns:sketch="http://www.bohemiancoding.com/sketch/ns">
    <!-- Generator: Sketch 3.2.2 (9983) - http://www.bohemiancoding.com/sketch -->
    <title>Path 5</title>
    <desc>Created with Sketch.</desc>
    <defs></defs>
    <g id="Page-1" stroke="none" stroke-width="1" fill="none" fill-rule="evenodd" sketch:type="MSPage">
        <g id="Oval-1-+-CJ" sketch:type="MSLayerGroup" transform="translate(-366.000000, 1.000000)" stroke="#D42929">
            <path d="M369.164062,87.2792969 C369.164062,87.2792969 386.09375,37.4707031 423.744141,17.3222656 C424.792969,17.7070313 370.273438,75.3515625 367.320312,119.927734 C368.267578,118.197266 408.417969,37.5410156 438.814453,9.96484375 C439.177061,10.3709098 384.060716,105.461896 384.060716,105.461896 C384.060716,105.461896 370.077206,132.550781 372.115234,132.550781 L457.257813,4.86328125 C457.257813,4.86328125 392.748047,126.103516 374.121094,151.572266 C355.494141,177.041016 467.419922,25.0820313 476.994141,2.0859375 C486.568359,-20.9101562 380.894531,168.068359 380.894531,168.068359 L491.300781,2.08007813 L387.232422,180.052734 L503.955078,7.6171875 L398.001953,188.521484 L520.849609,11.4804688 L407.144531,199.048828 L535.830078,17.9082031 L419.78125,209.449219 L549.029297,28.7089844 L432.482422,215.908203 L560.046875,39.7304688 L448.730469,218.355469 L567.646484,53.4101563 L461.994141,219.898438 L573.636719,67.8476563 L479.232422,220.203125 L581.667969,82.3535156 L496.753906,220.330078 L585.337891,100.585938 L518.443359,213.380859 L585.794922,124.361328 L538.898438,204.585938 C538.898438,204.585938 569.406244,183.068363 581.453125,152.693359" id="Path-5" sketch:type="MSShapeGroup"></path>
        </g>
    </g>
</svg>